<?xml version="1.0" encoding="UTF-8" standalone="no"?>
<svg
   xmlns:dc="http://purl.org/dc/elements/1.1/"
   xmlns:cc="http://creativecommons.org/ns#"
   xmlns:rdf="http://www.w3.org/1999/02/22-rdf-syntax-ns#"
   xmlns:svg="http://www.w3.org/2000/svg"
   xmlns="http://www.w3.org/2000/svg"
   xmlns:sodipodi="http://sodipodi.sourceforge.net/DTD/sodipodi-0.dtd"
   xmlns:inkscape="http://www.inkscape.org/namespaces/inkscape"
   version="1.1"
   width="279.4mm"
   height="190.5mm"
   viewBox=" 0 0 990.0008139999999 675.000555"
   id="svg2"
   inkscape:version="0.48.4 r9939"
   sodipodi:docname="acrylic 1-10 in.svg">
  <metadata
     id="metadata56">
    <rdf:RDF>
      <cc:Work
         rdf:about="">
        <dc:format>image/svg+xml</dc:format>
        <dc:type
           rdf:resource="http://purl.org/dc/dcmitype/StillImage" />
        <dc:title></dc:title>
      </cc:Work>
    </rdf:RDF>
  </metadata>
  <defs
     id="defs54" />
  <sodipodi:namedview
     pagecolor="#ffffff"
     bordercolor="#666666"
     borderopacity="1"
     objecttolerance="10"
     gridtolerance="10"
     guidetolerance="10"
     inkscape:pageopacity="0"
     inkscape:pageshadow="2"
     inkscape:window-width="900"
     inkscape:window-height="588"
     id="namedview52"
     showgrid="false"
     inkscape:zoom="0.58989899"
     inkscape:cx="567.47975"
     inkscape:cy="312.47008"
     inkscape:window-x="75"
     inkscape:window-y="34"
     inkscape:window-maximized="0"
     inkscape:current-layer="g4" />
  <!-- Front-->
  <g
     transform="translate(22.5000185, 22.5000185) "
     id="g4">
    <polygon
       style="stroke:#000000; fill:none; stroke-width:0.90000074"
       points="0, 0 31.535458999999996, 0 31.535458999999996, 9.0000074 63.07091799999999, 9.0000074 63.07091799999999, 0 84.330778, 0 84.330778, 9.0000074 105.59063799999998, 9.0000074 105.59063799999998, 0 126.85049799999999, 0 126.85049799999999, 9.0000074 148.110358, 9.0000074 148.110358, 0 169.370218, 0 169.370218, 9.0000074 190.63007799999997, 9.0000074 190.63007799999997, 0 211.88993799999997, 0 211.88993799999997, 9.0000074 233.14979799999998, 9.0000074 233.14979799999998, 0 254.40965799999998, 0 254.40965799999998, 9.0000074 275.669518, 9.0000074 275.669518, 0 296.929378, 0 296.929378, 9.0000074 328.464837, 9.0000074 328.464837, 0 360.000296, 0 360.000296, 30.915379750000003 351.0002886, 30.915379750000003 351.0002886, 61.830759500000006 360.000296, 61.830759500000006 360.000296, 83.0906195 351.0002886, 83.0906195 351.0002886, 104.3504795 360.000296, 104.3504795 360.000296, 125.61033950000001 351.0002886, 125.61033950000001 351.0002886, 146.8701995 360.000296, 146.8701995 360.000296, 168.13005950000002 351.0002886, 168.13005950000002 351.0002886, 189.3899195 360.000296, 189.3899195 360.000296, 210.6497795 351.0002886, 210.6497795 351.0002886, 231.9096395 360.000296, 231.9096395 360.000296, 253.1694995 351.0002886, 253.1694995 351.0002886, 284.08487925000003 360.000296, 284.08487925000003 360.000296, 315.000259 328.464837, 315.000259 328.464837, 306.0002516 296.929378, 306.0002516 296.929378, 315.000259 275.669518, 315.000259 275.669518, 306.0002516 254.40965799999998, 306.0002516 254.40965799999998, 315.000259 233.14979799999998, 315.000259 233.14979799999998, 306.0002516 211.88993799999997, 306.0002516 211.88993799999997, 315.000259 190.63007799999997, 315.000259 190.63007799999997, 306.0002516 169.370218, 306.0002516 169.370218, 315.000259 148.110358, 315.000259 148.110358, 306.0002516 126.85049799999999, 306.0002516 126.85049799999999, 315.000259 105.59063799999998, 315.000259 105.59063799999998, 306.0002516 84.330778, 306.0002516 84.330778, 315.000259 63.07091799999999, 315.000259 63.07091799999999, 306.0002516 31.535458999999996, 306.0002516 31.535458999999996, 315.000259 0, 315.000259 0, 284.08487925000003 9.0000074, 284.08487925000003 9.0000074, 253.1694995 0, 253.1694995 0, 231.9096395 9.0000074, 231.9096395 9.0000074, 210.6497795 0, 210.6497795 0, 189.3899195 9.0000074, 189.3899195 9.0000074, 168.13005950000002 0, 168.13005950000002 0, 146.8701995 9.0000074, 146.8701995 9.0000074, 125.61033950000001 0, 125.61033950000001 0, 104.3504795 9.0000074, 104.3504795 9.0000074, 83.0906195 0, 83.0906195 0, 61.830759500000006 9.0000074, 61.830759500000006 9.0000074, 30.915379750000003 0, 30.915379750000003 "
       id="polygon6" />
    <rect
       x="54.212643"
       y="53.14965"
       width="251.57501"
       height="85.03944"
       rx="3.54331"
       ry="3.54331"
       style="stroke:#000000;stroke-width:0.90000074;fill:none"
       id="rect8" />
    <g
       transform="matrix(0.02197267,0,0,0.02197267,-31.165999,32.364691)"
       id="g10">
      <text
         xml:space="preserve"
         style="font-size:1137.77795409999976073px;font-style:italic;font-weight:normal;line-height:125%;letter-spacing:0px;word-spacing:0px;fill:#000000;fill-opacity:1;stroke:none;font-family:UnDotum;-inkscape-font-specification:UnDotum Italic;font-stretch:normal;font-variant:normal"
         x="3558.5176"
         y="8201.8154"
         id="text3033"
         sodipodi:linespacing="125%"><tspan
           sodipodi:role="line"
           id="tspan3035"
           x="3558.5176"
           y="8201.8154">Pura Vida</tspan></text>
      <text
         xml:space="preserve"
         style="font-size:1820.44482421999987309px;font-style:italic;font-weight:normal;line-height:125%;letter-spacing:0px;word-spacing:0px;fill:#000000;fill-opacity:1;stroke:none;font-family:UnDotum;-inkscape-font-specification:UnDotum Italic;font-stretch:normal;font-variant:normal"
         x="3449.4099"
         y="9401.999"
         id="text3037"
         sodipodi:linespacing="125%"><tspan
           sodipodi:role="line"
           id="tspan3039"
           x="3449.4099"
           y="9401.999"
           style="font-size:1137.77795409999976073px;font-style:italic;-inkscape-font-specification:UnDotum Italic;font-family:UnDotum;font-weight:normal;font-stretch:normal;font-variant:normal">Particulate Monitor v1.0</tspan></text>
    </g>
    <rect
       x="535.06299"
       y="606.98071"
       width="143.73616"
       height="11.104575"
       rx="2.0244527"
       ry="0.46269065"
       style="fill:none;stroke:#000000;stroke-width:0.24582888"
       id="rect8-3"
       transform="matrix(0.8660254,-0.5,0.5,0.8660254,0,0)" />
    <rect
       x="551.16748"
       y="579.08698"
       width="143.73616"
       height="11.104575"
       rx="2.0244527"
       ry="0.46269065"
       style="fill:none;stroke:#000000;stroke-width:0.24582888"
       id="rect8-3-1"
       transform="matrix(0.8660254,-0.5,0.5,0.8660254,0,0)" />
    <rect
       x="566.42432"
       y="552.66132"
       width="143.73616"
       height="11.104575"
       rx="2.0244527"
       ry="0.46269065"
       style="fill:none;stroke:#000000;stroke-width:0.24582888"
       id="rect8-3-1-5"
       transform="matrix(0.8660254,-0.5,0.5,0.8660254,0,0)" />
    <rect
       x="374.18393"
       y="881.4386"
       width="143.73616"
       height="11.104575"
       rx="2.0244527"
       ry="0.46269065"
       style="fill:none;stroke:#000000;stroke-width:0.24582888"
       id="rect8-3-3"
       transform="matrix(0.8660254,-0.5,0.5,0.8660254,0,0)" />
    <rect
       x="390.28842"
       y="853.54486"
       width="143.73616"
       height="11.104575"
       rx="2.0244527"
       ry="0.46269065"
       style="fill:none;stroke:#000000;stroke-width:0.24582888"
       id="rect8-3-1-7"
       transform="matrix(0.8660254,-0.5,0.5,0.8660254,0,0)" />
    <rect
       x="405.54526"
       y="827.1192"
       width="143.73616"
       height="11.104575"
       rx="2.0244527"
       ry="0.46269065"
       style="fill:none;stroke:#000000;stroke-width:0.24582888"
       id="rect8-3-1-5-7"
       transform="matrix(0.8660254,-0.5,0.5,0.8660254,0,0)" />
  </g>
  <!-- Back-->
  <g
     transform="translate(382.50031449999994, 22.5000185) "
     id="g32">
    <polygon
       style="stroke:#000000; fill:none; stroke-width:0.90000074"
       points="0, 0 31.535458999999996, 0 31.535458999999996, 9.0000074 63.07091799999999, 9.0000074 63.07091799999999, 0 84.330778, 0 84.330778, 9.0000074 105.59063799999998, 9.0000074 105.59063799999998, 0 126.85049799999999, 0 126.85049799999999, 9.0000074 148.110358, 9.0000074 148.110358, 0 169.370218, 0 169.370218, 9.0000074 190.63007799999997, 9.0000074 190.63007799999997, 0 211.88993799999997, 0 211.88993799999997, 9.0000074 233.14979799999998, 9.0000074 233.14979799999998, 0 254.40965799999998, 0 254.40965799999998, 9.0000074 275.669518, 9.0000074 275.669518, 0 296.929378, 0 296.929378, 9.0000074 328.464837, 9.0000074 328.464837, 0 360.000296, 0 360.000296, 30.915379750000003 351.0002886, 30.915379750000003 351.0002886, 61.830759500000006 360.000296, 61.830759500000006 360.000296, 83.0906195 351.0002886, 83.0906195 351.0002886, 104.3504795 360.000296, 104.3504795 360.000296, 125.61033950000001 351.0002886, 125.61033950000001 351.0002886, 146.8701995 360.000296, 146.8701995 360.000296, 168.13005950000002 351.0002886, 168.13005950000002 351.0002886, 189.3899195 360.000296, 189.3899195 360.000296, 210.6497795 351.0002886, 210.6497795 351.0002886, 231.9096395 360.000296, 231.9096395 360.000296, 253.1694995 351.0002886, 253.1694995 351.0002886, 284.08487925000003 360.000296, 284.08487925000003 360.000296, 315.000259 328.464837, 315.000259 328.464837, 306.0002516 296.929378, 306.0002516 296.929378, 315.000259 275.669518, 315.000259 275.669518, 306.0002516 254.40965799999998, 306.0002516 254.40965799999998, 315.000259 233.14979799999998, 315.000259 233.14979799999998, 306.0002516 211.88993799999997, 306.0002516 211.88993799999997, 315.000259 190.63007799999997, 315.000259 190.63007799999997, 306.0002516 169.370218, 306.0002516 169.370218, 315.000259 148.110358, 315.000259 148.110358, 306.0002516 126.85049799999999, 306.0002516 126.85049799999999, 315.000259 105.59063799999998, 315.000259 105.59063799999998, 306.0002516 84.330778, 306.0002516 84.330778, 315.000259 63.07091799999999, 315.000259 63.07091799999999, 306.0002516 31.535458999999996, 306.0002516 31.535458999999996, 315.000259 0, 315.000259 0, 284.08487925000003 9.0000074, 284.08487925000003 9.0000074, 253.1694995 0, 253.1694995 0, 231.9096395 9.0000074, 231.9096395 9.0000074, 210.6497795 0, 210.6497795 0, 189.3899195 9.0000074, 189.3899195 9.0000074, 168.13005950000002 0, 168.13005950000002 0, 146.8701995 9.0000074, 146.8701995 9.0000074, 125.61033950000001 0, 125.61033950000001 0, 104.3504795 9.0000074, 104.3504795 9.0000074, 83.0906195 0, 83.0906195 0, 61.830759500000006 9.0000074, 61.830759500000006 9.0000074, 30.915379750000003 0, 30.915379750000003 "
       id="polygon34" />
  </g>
  <!-- Left-->
  <g
     transform="translate(742.5006104999999, 22.5000185) "
     id="g36">
    <polygon
       style="stroke:#000000; fill:none; stroke-width:0.90000074"
       points="9.0000074, 0 29.67522125, 0 29.67522125, 9.0000074 59.3504425, 9.0000074 59.3504425, 0 80.6103025, 0 80.6103025, 9.0000074 101.87016249999999, 9.0000074 101.87016249999999, 0 123.1300225, 0 123.1300225, 9.0000074 144.3898825, 9.0000074 144.3898825, 0 165.6497425, 0 165.6497425, 9.0000074 195.32496375, 9.0000074 195.32496375, 0 216.0001776, 0 216.0001776, 30.915379750000003 225.000185, 30.915379750000003 225.000185, 61.830759500000006 216.0001776, 61.830759500000006 216.0001776, 83.0906195 225.000185, 83.0906195 225.000185, 104.3504795 216.0001776, 104.3504795 216.0001776, 125.61033950000001 225.000185, 125.61033950000001 225.000185, 146.8701995 216.0001776, 146.8701995 216.0001776, 168.13005950000002 225.000185, 168.13005950000002 225.000185, 189.3899195 216.0001776, 189.3899195 216.0001776, 210.6497795 225.000185, 210.6497795 225.000185, 231.9096395 216.0001776, 231.9096395 216.0001776, 253.1694995 225.000185, 253.1694995 225.000185, 284.08487925000003 216.0001776, 284.08487925000003 216.0001776, 315.000259 195.32496375, 315.000259 195.32496375, 306.0002516 165.6497425, 306.0002516 165.6497425, 315.000259 144.3898825, 315.000259 144.3898825, 306.0002516 123.1300225, 306.0002516 123.1300225, 315.000259 101.87016249999999, 315.000259 101.87016249999999, 306.0002516 80.6103025, 306.0002516 80.6103025, 315.000259 59.3504425, 315.000259 59.3504425, 306.0002516 29.67522125, 306.0002516 29.67522125, 315.000259 9.0000074, 315.000259 9.0000074, 284.08487925000003 0, 284.08487925000003 0, 253.1694995 9.0000074, 253.1694995 9.0000074, 231.9096395 0, 231.9096395 0, 210.6497795 9.0000074, 210.6497795 9.0000074, 189.3899195 0, 189.3899195 0, 168.13005950000002 9.0000074, 168.13005950000002 9.0000074, 146.8701995 0, 146.8701995 0, 125.61033950000001 9.0000074, 125.61033950000001 9.0000074, 104.3504795 0, 104.3504795 0, 83.0906195 9.0000074, 83.0906195 9.0000074, 61.830759500000006 0, 61.830759500000006 0, 30.915379750000003 9.0000074, 30.915379750000003 "
       id="polygon38" />
  </g>
  <!-- Right-->
  <g
     transform="translate(742.5006104999999, 337.5002775) "
     id="g40">
    <polygon
       style="stroke:#000000; fill:none; stroke-width:0.90000074"
       points="9.0000074, 0 29.67522125, 0 29.67522125, 9.0000074 59.3504425, 9.0000074 59.3504425, 0 80.6103025, 0 80.6103025, 9.0000074 101.87016249999999, 9.0000074 101.87016249999999, 0 123.1300225, 0 123.1300225, 9.0000074 144.3898825, 9.0000074 144.3898825, 0 165.6497425, 0 165.6497425, 9.0000074 195.32496375, 9.0000074 195.32496375, 0 216.0001776, 0 216.0001776, 30.915379750000003 225.000185, 30.915379750000003 225.000185, 61.830759500000006 216.0001776, 61.830759500000006 216.0001776, 83.0906195 225.000185, 83.0906195 225.000185, 104.3504795 216.0001776, 104.3504795 216.0001776, 125.61033950000001 225.000185, 125.61033950000001 225.000185, 146.8701995 216.0001776, 146.8701995 216.0001776, 168.13005950000002 225.000185, 168.13005950000002 225.000185, 189.3899195 216.0001776, 189.3899195 216.0001776, 210.6497795 225.000185, 210.6497795 225.000185, 231.9096395 216.0001776, 231.9096395 216.0001776, 253.1694995 225.000185, 253.1694995 225.000185, 284.08487925000003 216.0001776, 284.08487925000003 216.0001776, 315.000259 195.32496375, 315.000259 195.32496375, 306.0002516 165.6497425, 306.0002516 165.6497425, 315.000259 144.3898825, 315.000259 144.3898825, 306.0002516 123.1300225, 306.0002516 123.1300225, 315.000259 101.87016249999999, 315.000259 101.87016249999999, 306.0002516 80.6103025, 306.0002516 80.6103025, 315.000259 59.3504425, 315.000259 59.3504425, 306.0002516 29.67522125, 306.0002516 29.67522125, 315.000259 9.0000074, 315.000259 9.0000074, 284.08487925000003 0, 284.08487925000003 0, 253.1694995 9.0000074, 253.1694995 9.0000074, 231.9096395 0, 231.9096395 0, 210.6497795 9.0000074, 210.6497795 9.0000074, 189.3899195 0, 189.3899195 0, 168.13005950000002 9.0000074, 168.13005950000002 9.0000074, 146.8701995 0, 146.8701995 0, 125.61033950000001 9.0000074, 125.61033950000001 9.0000074, 104.3504795 0, 104.3504795 0, 83.0906195 9.0000074, 83.0906195 9.0000074, 61.830759500000006 0, 61.830759500000006 0, 30.915379750000003 9.0000074, 30.915379750000003 "
       id="polygon42" />
  </g>
  <!-- Top-->
  <g
     transform="translate(22.5000185, 337.5002775) "
     id="g44">
    <polygon
       style="stroke:#000000; fill:none; stroke-width:0.90000074"
       points="9.0000074, 9.0000074 31.535458999999996, 9.0000074 31.535458999999996, 0 63.07091799999999, 0 63.07091799999999, 9.0000074 84.330778, 9.0000074 84.330778, 0 105.59063799999998, 0 105.59063799999998, 9.0000074 126.85049799999999, 9.0000074 126.85049799999999, 0 148.110358, 0 148.110358, 9.0000074 169.370218, 9.0000074 169.370218, 0 190.63007799999997, 0 190.63007799999997, 9.0000074 211.88993799999997, 9.0000074 211.88993799999997, 0 233.14979799999998, 0 233.14979799999998, 9.0000074 254.40965799999998, 9.0000074 254.40965799999998, 0 275.669518, 0 275.669518, 9.0000074 296.929378, 9.0000074 296.929378, 0 328.464837, 0 328.464837, 9.0000074 351.0002886, 9.0000074 351.0002886, 29.67522125 360.000296, 29.67522125 360.000296, 59.3504425 351.0002886, 59.3504425 351.0002886, 80.6103025 360.000296, 80.6103025 360.000296, 101.87016249999999 351.0002886, 101.87016249999999 351.0002886, 123.1300225 360.000296, 123.1300225 360.000296, 144.3898825 351.0002886, 144.3898825 351.0002886, 165.6497425 360.000296, 165.6497425 360.000296, 195.32496375 351.0002886, 195.32496375 351.0002886, 216.0001776 328.464837, 216.0001776 328.464837, 225.000185 296.929378, 225.000185 296.929378, 216.0001776 275.669518, 216.0001776 275.669518, 225.000185 254.40965799999998, 225.000185 254.40965799999998, 216.0001776 233.14979799999998, 216.0001776 233.14979799999998, 225.000185 211.88993799999997, 225.000185 211.88993799999997, 216.0001776 190.63007799999997, 216.0001776 190.63007799999997, 225.000185 169.370218, 225.000185 169.370218, 216.0001776 148.110358, 216.0001776 148.110358, 225.000185 126.85049799999999, 225.000185 126.85049799999999, 216.0001776 105.59063799999998, 216.0001776 105.59063799999998, 225.000185 84.330778, 225.000185 84.330778, 216.0001776 63.07091799999999, 216.0001776 63.07091799999999, 225.000185 31.535458999999996, 225.000185 31.535458999999996, 216.0001776 9.0000074, 216.0001776 9.0000074, 195.32496375 0, 195.32496375 0, 165.6497425 9.0000074, 165.6497425 9.0000074, 144.3898825 0, 144.3898825 0, 123.1300225 9.0000074, 123.1300225 9.0000074, 101.87016249999999 0, 101.87016249999999 0, 80.6103025 9.0000074, 80.6103025 9.0000074, 59.3504425 0, 59.3504425 0, 29.67522125 9.0000074, 29.67522125 "
       id="polygon46" />
  </g>
  <!-- Bottom-->
  <g
     transform="translate(382.50031449999994, 337.5002775) "
     id="g48">
    <polygon
       style="stroke:#000000; fill:none; stroke-width:0.90000074"
       points="9.0000074, 9.0000074 31.535458999999996, 9.0000074 31.535458999999996, 0 63.07091799999999, 0 63.07091799999999, 9.0000074 84.330778, 9.0000074 84.330778, 0 105.59063799999998, 0 105.59063799999998, 9.0000074 126.85049799999999, 9.0000074 126.85049799999999, 0 148.110358, 0 148.110358, 9.0000074 169.370218, 9.0000074 169.370218, 0 190.63007799999997, 0 190.63007799999997, 9.0000074 211.88993799999997, 9.0000074 211.88993799999997, 0 233.14979799999998, 0 233.14979799999998, 9.0000074 254.40965799999998, 9.0000074 254.40965799999998, 0 275.669518, 0 275.669518, 9.0000074 296.929378, 9.0000074 296.929378, 0 328.464837, 0 328.464837, 9.0000074 351.0002886, 9.0000074 351.0002886, 29.67522125 360.000296, 29.67522125 360.000296, 59.3504425 351.0002886, 59.3504425 351.0002886, 80.6103025 360.000296, 80.6103025 360.000296, 101.87016249999999 351.0002886, 101.87016249999999 351.0002886, 123.1300225 360.000296, 123.1300225 360.000296, 144.3898825 351.0002886, 144.3898825 351.0002886, 165.6497425 360.000296, 165.6497425 360.000296, 195.32496375 351.0002886, 195.32496375 351.0002886, 216.0001776 328.464837, 216.0001776 328.464837, 225.000185 296.929378, 225.000185 296.929378, 216.0001776 275.669518, 216.0001776 275.669518, 225.000185 254.40965799999998, 225.000185 254.40965799999998, 216.0001776 233.14979799999998, 216.0001776 233.14979799999998, 225.000185 211.88993799999997, 225.000185 211.88993799999997, 216.0001776 190.63007799999997, 216.0001776 190.63007799999997, 225.000185 169.370218, 225.000185 169.370218, 216.0001776 148.110358, 216.0001776 148.110358, 225.000185 126.85049799999999, 225.000185 126.85049799999999, 216.0001776 105.59063799999998, 216.0001776 105.59063799999998, 225.000185 84.330778, 225.000185 84.330778, 216.0001776 63.07091799999999, 216.0001776 63.07091799999999, 225.000185 31.535458999999996, 225.000185 31.535458999999996, 216.0001776 9.0000074, 216.0001776 9.0000074, 195.32496375 0, 195.32496375 0, 165.6497425 9.0000074, 165.6497425 9.0000074, 144.3898825 0, 144.3898825 0, 123.1300225 9.0000074, 123.1300225 9.0000074, 101.87016249999999 0, 101.87016249999999 0, 80.6103025 9.0000074, 80.6103025 9.0000074, 59.3504425 0, 59.3504425 0, 29.67522125 9.0000074, 29.67522125 "
       id="polygon50" />
  </g>
</svg>
