<?xml version="1.0" encoding="UTF-8" standalone="no"?>
<svg
   xmlns:dc="http://purl.org/dc/elements/1.1/"
   xmlns:cc="http://creativecommons.org/ns#"
   xmlns:rdf="http://www.w3.org/1999/02/22-rdf-syntax-ns#"
   xmlns:svg="http://www.w3.org/2000/svg"
   xmlns="http://www.w3.org/2000/svg"
   xmlns:sodipodi="http://sodipodi.sourceforge.net/DTD/sodipodi-0.dtd"
   xmlns:inkscape="http://www.inkscape.org/namespaces/inkscape"
   version="1.1"
   width="990"
   height="675"
   viewBox="0 0 990.00081 675.00056"
   id="svg2"
   inkscape:version="0.48.4 r9939"
   sodipodi:docname="acrylic 1-10 in.svg">
  <metadata
     id="metadata56">
    <rdf:RDF>
      <cc:Work
         rdf:about="">
        <dc:format>image/svg+xml</dc:format>
        <dc:type
           rdf:resource="http://purl.org/dc/dcmitype/StillImage" />
        <dc:title />
      </cc:Work>
    </rdf:RDF>
  </metadata>
  <defs
     id="defs54" />
  <sodipodi:namedview
     pagecolor="#ffffff"
     bordercolor="#666666"
     borderopacity="1"
     objecttolerance="10"
     gridtolerance="10"
     guidetolerance="10"
     inkscape:pageopacity="0"
     inkscape:pageshadow="2"
     inkscape:window-width="900"
     inkscape:window-height="588"
     id="namedview52"
     showgrid="false"
     inkscape:zoom="0.58989899"
     inkscape:cx="629.48021"
     inkscape:cy="312.47008"
     inkscape:window-x="75"
     inkscape:window-y="34"
     inkscape:window-maximized="0"
     inkscape:current-layer="g4"
     units="in" />
  <!-- Front-->
  <g
     transform="translate(22.500018,22.499556)"
     id="g4">
    <polygon
       style="fill:none;stroke:#000000;stroke-width:0.90000075"
       points="84.330778,9.0000074 105.59064,9.0000074 105.59064,0 126.8505,0 126.8505,9.0000074 148.11036,9.0000074 148.11036,0 169.37022,0 169.37022,9.0000074 190.63008,9.0000074 190.63008,0 211.88994,0 211.88994,9.0000074 233.1498,9.0000074 233.1498,0 254.40966,0 254.40966,9.0000074 275.66952,9.0000074 275.66952,0 296.92938,0 296.92938,9.0000074 328.46484,9.0000074 328.46484,0 360.0003,0 360.0003,30.91538 351.00029,30.91538 351.00029,61.83076 360.0003,61.83076 360.0003,83.09062 351.00029,83.09062 351.00029,104.35048 360.0003,104.35048 360.0003,125.61034 351.00029,125.61034 351.00029,146.8702 360.0003,146.8702 360.0003,168.13006 351.00029,168.13006 351.00029,189.38992 360.0003,189.38992 360.0003,210.64978 351.00029,210.64978 351.00029,231.90964 360.0003,231.90964 360.0003,253.1695 351.00029,253.1695 351.00029,284.08488 360.0003,284.08488 360.0003,315.00026 328.46484,315.00026 328.46484,306.00025 296.92938,306.00025 296.92938,315.00026 275.66952,315.00026 275.66952,306.00025 254.40966,306.00025 254.40966,315.00026 233.1498,315.00026 233.1498,306.00025 211.88994,306.00025 211.88994,315.00026 190.63008,315.00026 190.63008,306.00025 169.37022,306.00025 169.37022,315.00026 148.11036,315.00026 148.11036,306.00025 126.8505,306.00025 126.8505,315.00026 105.59064,315.00026 105.59064,306.00025 84.330778,306.00025 84.330778,315.00026 63.070918,315.00026 63.070918,306.00025 31.535459,306.00025 31.535459,315.00026 0,315.00026 0,284.08488 9.0000074,284.08488 9.0000074,253.1695 0,253.1695 0,231.90964 9.0000074,231.90964 9.0000074,210.64978 0,210.64978 0,189.38992 9.0000074,189.38992 9.0000074,168.13006 0,168.13006 0,146.8702 9.0000074,146.8702 9.0000074,125.61034 0,125.61034 0,104.35048 9.0000074,104.35048 9.0000074,83.09062 0,83.09062 0,61.83076 9.0000074,61.83076 9.0000074,30.91538 0,30.91538 0,0 31.535459,0 31.535459,9.0000074 63.070918,9.0000074 63.070918,0 84.330778,0 "
       id="polygon6" />
    <rect
       x="54.212643"
       y="53.149651"
       width="251.57501"
       height="85.039436"
       rx="3.5433099"
       ry="3.5433099"
       style="fill:none;stroke:#000000;stroke-width:0.90000075"
       id="rect8" />
    <g
       transform="matrix(0.02197267,0,0,0.02197267,-46.422861,32.364691)"
       id="g10">
      <text
         xml:space="preserve"
         style="font-size:1137.7779541px;font-style:italic;font-variant:normal;font-weight:normal;font-stretch:normal;line-height:125%;letter-spacing:0px;word-spacing:0px;fill:#000000;fill-opacity:1;stroke:none;font-family:Sans;-inkscape-font-specification:Sans Italic"
         x="3558.5176"
         y="8201.8154"
         id="text3033"
         sodipodi:linespacing="125%"><tspan
           sodipodi:role="line"
           id="tspan3035"
           x="3558.5176"
           y="8201.8154"
           style="font-size:364.08896311px">Pura Vida</tspan></text>
      <text
         xml:space="preserve"
         style="font-size:1820.44482422px;font-style:italic;font-variant:normal;font-weight:normal;font-stretch:normal;line-height:125%;letter-spacing:0px;word-spacing:0px;fill:#000000;fill-opacity:1;stroke:none;font-family:Sans;-inkscape-font-specification:Sans Italic"
         x="3449.4099"
         y="9401.999"
         id="text3037"
         sodipodi:linespacing="125%"><tspan
           sodipodi:role="line"
           id="tspan3039"
           x="3449.4099"
           y="9401.999"
           style="font-size:364.08896311px;font-style:italic;font-variant:normal;font-weight:normal;font-stretch:normal;font-family:Sans;-inkscape-font-specification:Sans Italic">Particulate Monitor v1.0</tspan></text>
    </g>
    <rect
       x="535.06299"
       y="606.98071"
       width="143.73616"
       height="11.104575"
       rx="2.0244527"
       ry="0.46269065"
       style="fill:none;stroke:#000000;stroke-width:0.24582888"
       id="rect8-3"
       transform="matrix(0.8660254,-0.5,0.5,0.8660254,0,0)" />
    <rect
       x="551.16748"
       y="579.08698"
       width="143.73616"
       height="11.104575"
       rx="2.0244527"
       ry="0.46269065"
       style="fill:none;stroke:#000000;stroke-width:0.24582888"
       id="rect8-3-1"
       transform="matrix(0.8660254,-0.5,0.5,0.8660254,0,0)" />
    <rect
       x="566.42432"
       y="552.66132"
       width="143.73616"
       height="11.104575"
       rx="2.0244527"
       ry="0.46269065"
       style="fill:none;stroke:#000000;stroke-width:0.24582888"
       id="rect8-3-1-5"
       transform="matrix(0.8660254,-0.5,0.5,0.8660254,0,0)" />
    <rect
       x="374.18393"
       y="881.4386"
       width="143.73616"
       height="11.104575"
       rx="2.0244527"
       ry="0.46269065"
       style="fill:none;stroke:#000000;stroke-width:0.24582888"
       id="rect8-3-3"
       transform="matrix(0.8660254,-0.5,0.5,0.8660254,0,0)" />
    <rect
       x="390.28842"
       y="853.54486"
       width="143.73616"
       height="11.104575"
       rx="2.0244527"
       ry="0.46269065"
       style="fill:none;stroke:#000000;stroke-width:0.24582888"
       id="rect8-3-1-7"
       transform="matrix(0.8660254,-0.5,0.5,0.8660254,0,0)" />
    <rect
       x="405.54526"
       y="827.1192"
       width="143.73616"
       height="11.104575"
       rx="2.0244527"
       ry="0.46269065"
       style="fill:none;stroke:#000000;stroke-width:0.24582888"
       id="rect8-3-1-5-7"
       transform="matrix(0.8660254,-0.5,0.5,0.8660254,0,0)" />
  </g>
  <!-- Back-->
  <g
     transform="translate(382.50031,22.499556)"
     id="g32">
    <polygon
       style="fill:none;stroke:#000000;stroke-width:0.90000075"
       points="84.330778,9.0000074 105.59064,9.0000074 105.59064,0 126.8505,0 126.8505,9.0000074 148.11036,9.0000074 148.11036,0 169.37022,0 169.37022,9.0000074 190.63008,9.0000074 190.63008,0 211.88994,0 211.88994,9.0000074 233.1498,9.0000074 233.1498,0 254.40966,0 254.40966,9.0000074 275.66952,9.0000074 275.66952,0 296.92938,0 296.92938,9.0000074 328.46484,9.0000074 328.46484,0 360.0003,0 360.0003,30.91538 351.00029,30.91538 351.00029,61.83076 360.0003,61.83076 360.0003,83.09062 351.00029,83.09062 351.00029,104.35048 360.0003,104.35048 360.0003,125.61034 351.00029,125.61034 351.00029,146.8702 360.0003,146.8702 360.0003,168.13006 351.00029,168.13006 351.00029,189.38992 360.0003,189.38992 360.0003,210.64978 351.00029,210.64978 351.00029,231.90964 360.0003,231.90964 360.0003,253.1695 351.00029,253.1695 351.00029,284.08488 360.0003,284.08488 360.0003,315.00026 328.46484,315.00026 328.46484,306.00025 296.92938,306.00025 296.92938,315.00026 275.66952,315.00026 275.66952,306.00025 254.40966,306.00025 254.40966,315.00026 233.1498,315.00026 233.1498,306.00025 211.88994,306.00025 211.88994,315.00026 190.63008,315.00026 190.63008,306.00025 169.37022,306.00025 169.37022,315.00026 148.11036,315.00026 148.11036,306.00025 126.8505,306.00025 126.8505,315.00026 105.59064,315.00026 105.59064,306.00025 84.330778,306.00025 84.330778,315.00026 63.070918,315.00026 63.070918,306.00025 31.535459,306.00025 31.535459,315.00026 0,315.00026 0,284.08488 9.0000074,284.08488 9.0000074,253.1695 0,253.1695 0,231.90964 9.0000074,231.90964 9.0000074,210.64978 0,210.64978 0,189.38992 9.0000074,189.38992 9.0000074,168.13006 0,168.13006 0,146.8702 9.0000074,146.8702 9.0000074,125.61034 0,125.61034 0,104.35048 9.0000074,104.35048 9.0000074,83.09062 0,83.09062 0,61.83076 9.0000074,61.83076 9.0000074,30.91538 0,30.91538 0,0 31.535459,0 31.535459,9.0000074 63.070918,9.0000074 63.070918,0 84.330778,0 "
       id="polygon34" />
  </g>
  <!-- Left-->
  <g
     transform="translate(742.50061,22.499556)"
     id="g36">
    <polygon
       style="fill:none;stroke:#000000;stroke-width:0.90000075"
       points="80.610303,9.0000074 101.87016,9.0000074 101.87016,0 123.13002,0 123.13002,9.0000074 144.38988,9.0000074 144.38988,0 165.64974,0 165.64974,9.0000074 195.32496,9.0000074 195.32496,0 216.00018,0 216.00018,30.91538 225.00018,30.91538 225.00018,61.83076 216.00018,61.83076 216.00018,83.09062 225.00018,83.09062 225.00018,104.35048 216.00018,104.35048 216.00018,125.61034 225.00018,125.61034 225.00018,146.8702 216.00018,146.8702 216.00018,168.13006 225.00018,168.13006 225.00018,189.38992 216.00018,189.38992 216.00018,210.64978 225.00018,210.64978 225.00018,231.90964 216.00018,231.90964 216.00018,253.1695 225.00018,253.1695 225.00018,284.08488 216.00018,284.08488 216.00018,315.00026 195.32496,315.00026 195.32496,306.00025 165.64974,306.00025 165.64974,315.00026 144.38988,315.00026 144.38988,306.00025 123.13002,306.00025 123.13002,315.00026 101.87016,315.00026 101.87016,306.00025 80.610303,306.00025 80.610303,315.00026 59.350442,315.00026 59.350442,306.00025 29.675221,306.00025 29.675221,315.00026 9.0000074,315.00026 9.0000074,284.08488 0,284.08488 0,253.1695 9.0000074,253.1695 9.0000074,231.90964 0,231.90964 0,210.64978 9.0000074,210.64978 9.0000074,189.38992 0,189.38992 0,168.13006 9.0000074,168.13006 9.0000074,146.8702 0,146.8702 0,125.61034 9.0000074,125.61034 9.0000074,104.35048 0,104.35048 0,83.09062 9.0000074,83.09062 9.0000074,61.83076 0,61.83076 0,30.91538 9.0000074,30.91538 9.0000074,0 29.675221,0 29.675221,9.0000074 59.350442,9.0000074 59.350442,0 80.610303,0 "
       id="polygon38" />
  </g>
  <!-- Right-->
  <g
     transform="translate(742.50061,337.50056)"
     id="g40">
    <polygon
       style="fill:none;stroke:#000000;stroke-width:0.90000075"
       points="80.610303,9.0000074 101.87016,9.0000074 101.87016,0 123.13002,0 123.13002,9.0000074 144.38988,9.0000074 144.38988,0 165.64974,0 165.64974,9.0000074 195.32496,9.0000074 195.32496,0 216.00018,0 216.00018,30.91538 225.00018,30.91538 225.00018,61.83076 216.00018,61.83076 216.00018,83.09062 225.00018,83.09062 225.00018,104.35048 216.00018,104.35048 216.00018,125.61034 225.00018,125.61034 225.00018,146.8702 216.00018,146.8702 216.00018,168.13006 225.00018,168.13006 225.00018,189.38992 216.00018,189.38992 216.00018,210.64978 225.00018,210.64978 225.00018,231.90964 216.00018,231.90964 216.00018,253.1695 225.00018,253.1695 225.00018,284.08488 216.00018,284.08488 216.00018,315.00026 195.32496,315.00026 195.32496,306.00025 165.64974,306.00025 165.64974,315.00026 144.38988,315.00026 144.38988,306.00025 123.13002,306.00025 123.13002,315.00026 101.87016,315.00026 101.87016,306.00025 80.610303,306.00025 80.610303,315.00026 59.350442,315.00026 59.350442,306.00025 29.675221,306.00025 29.675221,315.00026 9.0000074,315.00026 9.0000074,284.08488 0,284.08488 0,253.1695 9.0000074,253.1695 9.0000074,231.90964 0,231.90964 0,210.64978 9.0000074,210.64978 9.0000074,189.38992 0,189.38992 0,168.13006 9.0000074,168.13006 9.0000074,146.8702 0,146.8702 0,125.61034 9.0000074,125.61034 9.0000074,104.35048 0,104.35048 0,83.09062 9.0000074,83.09062 9.0000074,61.83076 0,61.83076 0,30.91538 9.0000074,30.91538 9.0000074,0 29.675221,0 29.675221,9.0000074 59.350442,9.0000074 59.350442,0 80.610303,0 "
       id="polygon42" />
  </g>
  <!-- Top-->
  <g
     transform="translate(22.500018,337.50056)"
     id="g44">
    <polygon
       style="fill:none;stroke:#000000;stroke-width:0.90000075"
       points="84.330778,0 105.59064,0 105.59064,9.0000074 126.8505,9.0000074 126.8505,0 148.11036,0 148.11036,9.0000074 169.37022,9.0000074 169.37022,0 190.63008,0 190.63008,9.0000074 211.88994,9.0000074 211.88994,0 233.1498,0 233.1498,9.0000074 254.40966,9.0000074 254.40966,0 275.66952,0 275.66952,9.0000074 296.92938,9.0000074 296.92938,0 328.46484,0 328.46484,9.0000074 351.00029,9.0000074 351.00029,29.675221 360.0003,29.675221 360.0003,59.350442 351.00029,59.350442 351.00029,80.610303 360.0003,80.610303 360.0003,101.87016 351.00029,101.87016 351.00029,123.13002 360.0003,123.13002 360.0003,144.38988 351.00029,144.38988 351.00029,165.64974 360.0003,165.64974 360.0003,195.32496 351.00029,195.32496 351.00029,216.00018 328.46484,216.00018 328.46484,225.00018 296.92938,225.00018 296.92938,216.00018 275.66952,216.00018 275.66952,225.00018 254.40966,225.00018 254.40966,216.00018 233.1498,216.00018 233.1498,225.00018 211.88994,225.00018 211.88994,216.00018 190.63008,216.00018 190.63008,225.00018 169.37022,225.00018 169.37022,216.00018 148.11036,216.00018 148.11036,225.00018 126.8505,225.00018 126.8505,216.00018 105.59064,216.00018 105.59064,225.00018 84.330778,225.00018 84.330778,216.00018 63.070918,216.00018 63.070918,225.00018 31.535459,225.00018 31.535459,216.00018 9.0000074,216.00018 9.0000074,195.32496 0,195.32496 0,165.64974 9.0000074,165.64974 9.0000074,144.38988 0,144.38988 0,123.13002 9.0000074,123.13002 9.0000074,101.87016 0,101.87016 0,80.610303 9.0000074,80.610303 9.0000074,59.350442 0,59.350442 0,29.675221 9.0000074,29.675221 9.0000074,9.0000074 31.535459,9.0000074 31.535459,0 63.070918,0 63.070918,9.0000074 84.330778,9.0000074 "
       id="polygon46" />
  </g>
  <!-- Bottom-->
  <g
     transform="translate(382.50031,337.50056)"
     id="g48">
    <polygon
       style="fill:none;stroke:#000000;stroke-width:0.90000075"
       points="84.330778,0 105.59064,0 105.59064,9.0000074 126.8505,9.0000074 126.8505,0 148.11036,0 148.11036,9.0000074 169.37022,9.0000074 169.37022,0 190.63008,0 190.63008,9.0000074 211.88994,9.0000074 211.88994,0 233.1498,0 233.1498,9.0000074 254.40966,9.0000074 254.40966,0 275.66952,0 275.66952,9.0000074 296.92938,9.0000074 296.92938,0 328.46484,0 328.46484,9.0000074 351.00029,9.0000074 351.00029,29.675221 360.0003,29.675221 360.0003,59.350442 351.00029,59.350442 351.00029,80.610303 360.0003,80.610303 360.0003,101.87016 351.00029,101.87016 351.00029,123.13002 360.0003,123.13002 360.0003,144.38988 351.00029,144.38988 351.00029,165.64974 360.0003,165.64974 360.0003,195.32496 351.00029,195.32496 351.00029,216.00018 328.46484,216.00018 328.46484,225.00018 296.92938,225.00018 296.92938,216.00018 275.66952,216.00018 275.66952,225.00018 254.40966,225.00018 254.40966,216.00018 233.1498,216.00018 233.1498,225.00018 211.88994,225.00018 211.88994,216.00018 190.63008,216.00018 190.63008,225.00018 169.37022,225.00018 169.37022,216.00018 148.11036,216.00018 148.11036,225.00018 126.8505,225.00018 126.8505,216.00018 105.59064,216.00018 105.59064,225.00018 84.330778,225.00018 84.330778,216.00018 63.070918,216.00018 63.070918,225.00018 31.535459,225.00018 31.535459,216.00018 9.0000074,216.00018 9.0000074,195.32496 0,195.32496 0,165.64974 9.0000074,165.64974 9.0000074,144.38988 0,144.38988 0,123.13002 9.0000074,123.13002 9.0000074,101.87016 0,101.87016 0,80.610303 9.0000074,80.610303 9.0000074,59.350442 0,59.350442 0,29.675221 9.0000074,29.675221 9.0000074,9.0000074 31.535459,9.0000074 31.535459,0 63.070918,0 63.070918,9.0000074 84.330778,9.0000074 "
       id="polygon50" />
  </g>
</svg>
