<?xml version="1.0" encoding="UTF-8" standalone="no"?>
<svg
   xmlns:dc="http://purl.org/dc/elements/1.1/"
   xmlns:cc="http://creativecommons.org/ns#"
   xmlns:rdf="http://www.w3.org/1999/02/22-rdf-syntax-ns#"
   xmlns:svg="http://www.w3.org/2000/svg"
   xmlns="http://www.w3.org/2000/svg"
   xmlns:sodipodi="http://sodipodi.sourceforge.net/DTD/sodipodi-0.dtd"
   xmlns:inkscape="http://www.inkscape.org/namespaces/inkscape"
   version="1.1"
   width="990"
   height="675"
   viewBox="0 0 990.00081 675.00056"
   id="svg2"
   inkscape:version="0.48.4 r9939"
   sodipodi:docname="acrylic 1-10 in.svg">
  <metadata
     id="metadata56">
    <rdf:RDF>
      <cc:Work
         rdf:about="">
        <dc:format>image/svg+xml</dc:format>
        <dc:type
           rdf:resource="http://purl.org/dc/dcmitype/StillImage" />
        <dc:title></dc:title>
      </cc:Work>
    </rdf:RDF>
  </metadata>
  <defs
     id="defs54" />
  <sodipodi:namedview
     pagecolor="#ffffff"
     bordercolor="#666666"
     borderopacity="1"
     objecttolerance="10"
     gridtolerance="10"
     guidetolerance="10"
     inkscape:pageopacity="0"
     inkscape:pageshadow="2"
     inkscape:window-width="900"
     inkscape:window-height="588"
     id="namedview52"
     showgrid="false"
     inkscape:zoom="0.58989899"
     inkscape:cx="567.47975"
     inkscape:cy="312.47008"
     inkscape:window-x="75"
     inkscape:window-y="34"
     inkscape:window-maximized="0"
     inkscape:current-layer="g4"
     units="in" />
  <!-- Front-->
  <g
     transform="translate(22.500018,22.499556)"
     id="g4">
    <polygon
       style="fill:none;stroke:#000000;stroke-width:0.90000075"
       points="84.330778,9.0000074 105.59064,9.0000074 105.59064,0 126.8505,0 126.8505,9.0000074 148.11036,9.0000074 148.11036,0 169.37022,0 169.37022,9.0000074 190.63008,9.0000074 190.63008,0 211.88994,0 211.88994,9.0000074 233.1498,9.0000074 233.1498,0 254.40966,0 254.40966,9.0000074 275.66952,9.0000074 275.66952,0 296.92938,0 296.92938,9.0000074 328.46484,9.0000074 328.46484,0 360.0003,0 360.0003,30.91538 351.00029,30.91538 351.00029,61.83076 360.0003,61.83076 360.0003,83.09062 351.00029,83.09062 351.00029,104.35048 360.0003,104.35048 360.0003,125.61034 351.00029,125.61034 351.00029,146.8702 360.0003,146.8702 360.0003,168.13006 351.00029,168.13006 351.00029,189.38992 360.0003,189.38992 360.0003,210.64978 351.00029,210.64978 351.00029,231.90964 360.0003,231.90964 360.0003,253.1695 351.00029,253.1695 351.00029,284.08488 360.0003,284.08488 360.0003,315.00026 328.46484,315.00026 328.46484,306.00025 296.92938,306.00025 296.92938,315.00026 275.66952,315.00026 275.66952,306.00025 254.40966,306.00025 254.40966,315.00026 233.1498,315.00026 233.1498,306.00025 211.88994,306.00025 211.88994,315.00026 190.63008,315.00026 190.63008,306.00025 169.37022,306.00025 169.37022,315.00026 148.11036,315.00026 148.11036,306.00025 126.8505,306.00025 126.8505,315.00026 105.59064,315.00026 105.59064,306.00025 84.330778,306.00025 84.330778,315.00026 63.070918,315.00026 63.070918,306.00025 31.535459,306.00025 31.535459,315.00026 0,315.00026 0,284.08488 9.0000074,284.08488 9.0000074,253.1695 0,253.1695 0,231.90964 9.0000074,231.90964 9.0000074,210.64978 0,210.64978 0,189.38992 9.0000074,189.38992 9.0000074,168.13006 0,168.13006 0,146.8702 9.0000074,146.8702 9.0000074,125.61034 0,125.61034 0,104.35048 9.0000074,104.35048 9.0000074,83.09062 0,83.09062 0,61.83076 9.0000074,61.83076 9.0000074,30.91538 0,30.91538 0,0 31.535459,0 31.535459,9.0000074 63.070918,9.0000074 63.070918,0 84.330778,0 "
       id="polygon6" />
    <rect
       x="54.212643"
       y="53.149651"
       width="251.57501"
       height="85.039436"
       rx="3.5433099"
       ry="3.5433099"
       style="fill:none;stroke:#000000;stroke-width:0.90000075"
       id="rect8" />
    <g
       transform="matrix(0.02197267,0,0,0.02197267,-46.422861,32.364691)"
       id="g10">
      <g
         style="font-size:1137.7779541px;font-style:italic;font-variant:normal;font-weight:normal;font-stretch:normal;line-height:125%;letter-spacing:0px;word-spacing:0px;fill:#000000;fill-opacity:1;stroke:none;font-family:Sans;-inkscape-font-specification:Sans Italic"
         id="text3033">
        <path
           d="m 3750.7398,7372.3709 259.4445,0 c 75.5551,8e-4 133.1476,17.5934 172.7778,52.7777 39.629,35.186 59.4438,86.6674 59.4445,154.4445 -7e-4,91.1117 -29.2599,162.0375 -87.7778,212.7778 -58.5191,50.7411 -140.7412,76.1115 -246.6667,76.1111 l -141.1112,0 -65,333.3334 -112.7778,0 161.6667,-829.4445 m 94.4445,92.2222 -60,311.6667 141.1111,0 c 63.7033,4e-4 112.5921,-16.2958 146.6667,-48.8889 34.0735,-32.5921 51.1106,-79.2587 51.1111,-140 -5e-4,-38.8883 -11.6672,-69.0734 -35,-90.5556 -22.9635,-21.4807 -55.3708,-32.2215 -97.2222,-32.2222 l -146.6667,0"
           style=""
           id="path3143" />
        <path
           d="m 4321.2954,7955.1487 72.7778,-375.5556 102.7778,0 -72.7778,371.6667 c -3.7038,18.1484 -6.4816,33.704 -8.3333,46.6667 -1.4816,12.9632 -2.2224,23.7039 -2.2222,32.2222 -2e-4,31.4817 9.6294,55.9261 28.8889,73.3334 19.259,17.0371 46.4812,25.5556 81.6667,25.5555 54.8144,1e-4 102.2218,-18.5184 142.2222,-55.5555 39.9995,-37.0369 66.1106,-86.8517 78.3333,-149.4445 l 68.3334,-344.4445 102.2222,0 -120.5555,622.2223 -102.2223,0 20.5556,-97.7778 c -28.8894,36.2964 -63.3338,64.4445 -103.3334,84.4445 -39.6299,19.6296 -81.8521,29.4444 -126.6667,29.4444 -54.4446,0 -96.852,-14.8148 -127.2222,-44.4444 -30.3705,-30 -45.5556,-71.6666 -45.5556,-125 0,-11.111 0.9259,-24.9999 2.7778,-41.6667 1.8518,-16.6665 4.6296,-33.8887 8.3333,-51.6667"
           style=""
           id="path3145" />
        <path
           d="m 5474.629,7674.0376 c -10.3708,-5.5551 -22.2227,-9.8143 -35.5555,-12.7778 -13.3338,-2.9624 -27.5931,-4.4439 -42.7778,-4.4445 -54.4448,6e-4 -102.0374,20.7413 -142.7778,62.2223 -40.741,41.1115 -67.778,96.2967 -81.1111,165.5556 l -62.7778,317.2222 -102.2223,0 121.6667,-622.2223 102.2223,0 -19.4445,96.6667 c 27.0368,-35.9254 59.259,-63.5179 96.6667,-82.7778 37.7774,-19.2586 77.9626,-28.8883 120.5556,-28.8889 11.1106,6e-4 22.0365,0.7414 32.7778,2.2222 10.7402,1.1118 21.4809,3.1488 32.2222,6.1111 l -19.4445,101.1112"
           style=""
           id="path3147" />
        <path
           d="m 6047.4069,7846.8154 -69.4445,355 -102.2222,0 18.8889,-94.4444 c -30.0005,37.0371 -64.2597,64.8148 -102.7778,83.3333 -38.1485,18.1482 -80.7411,27.2222 -127.7778,27.2222 -52.9632,0 -96.4817,-16.1111 -130.5556,-48.3333 -33.7038,-32.5925 -50.5556,-74.2592 -50.5556,-125 0,-72.5924 28.8888,-129.9997 86.6667,-172.2223 58.148,-42.2218 138.1479,-63.3329 240,-63.3333 l 142.2223,0 5.5555,-27.2222 c 0.7403,-2.9626 1.2958,-6.1107 1.6667,-9.4445 0.3699,-3.7033 0.555,-9.2588 0.5556,-16.6667 -6e-4,-32.9624 -13.5191,-58.518 -40.5556,-76.6666 -26.6671,-18.518 -64.2597,-27.7773 -112.7778,-27.7778 -33.3337,5e-4 -67.5929,4.2598 -102.7778,12.7778 -34.815,8.519 -70.7409,21.2968 -107.7778,38.3333 l 17.7778,-94.4445 c 38.5183,-14.4438 76.1109,-25.1845 112.7778,-32.2222 37.0367,-7.4068 72.7774,-11.1105 107.2222,-11.1111 73.3329,6e-4 129.0736,15.9266 167.2223,47.7778 38.5179,31.8524 57.7772,78.1487 57.7778,138.8889 -6e-4,12.2227 -0.9266,26.6671 -2.7778,43.3333 -1.8525,16.2967 -4.6303,33.7041 -8.3333,52.2223 m -110.5556,42.2222 -102.2223,0 c -83.704,3e-4 -145.741,11.2966 -186.1111,33.8889 -40.0002,22.2225 -60.0002,56.8521 -60,103.8889 -2e-4,32.5927 10.185,58.1483 30.5556,76.6667 20.7405,18.5186 49.259,27.7778 85.5555,27.7778 55.5553,0 104.0737,-19.8148 145.5556,-59.4445 41.481,-39.9998 68.8884,-93.3331 82.2222,-160 l 4.4445,-22.7778"
           style=""
           id="path3149" />
        <path
           d="m 6730.7404,8201.8154 -145.5556,-829.4445 110,0 120.5556,713.3334 402.7778,-713.3334 122.2223,0 -479.4445,829.4445 -130.5556,0"
           style=""
           id="path3151" />
        <path
           d="m 7482.4071,7337.3709 102.2222,0 -25,129.4444 -102.2222,0 25,-129.4444 m -46.6667,242.2222 102.2223,0 -121.6667,622.2223 -102.2223,0 121.6667,-622.2223"
           style=""
           id="path3153" />
        <path
           d="m 8065.185,8108.4821 c -27.4078,35.926 -59.8152,63.1482 -97.2222,81.6667 -37.4078,18.5185 -78.8892,27.7777 -124.4445,27.7777 -62.2224,0 -111.4816,-21.1111 -147.7778,-63.3333 -35.926,-42.5925 -53.8889,-100.7406 -53.8889,-174.4445 0,-61.4812 10.9259,-119.9996 32.7778,-175.5556 21.8518,-55.9254 53.5184,-105.9254 95,-150 27.4072,-29.2587 58.3331,-51.4809 92.7778,-66.6667 34.4442,-15.5549 70.5552,-23.3327 108.3334,-23.3333 39.9995,6e-4 75.1847,9.6303 105.5555,28.8889 30.7403,19.2599 54.4439,46.8524 71.1112,82.7778 l 66.6666,-338.8889 102.7778,0 -168.3333,864.4445 -102.7778,0 19.4444,-93.3333 m -317.2222,-146.6667 c -2e-4,53.7039 12.0368,95.5557 36.1111,125.5556 24.4442,30.0001 58.1479,45 101.1111,45 31.8515,0 61.2959,-7.5925 88.3333,-22.7778 27.407,-15.5555 51.4811,-38.3332 72.2223,-68.3334 21.8514,-31.1109 39.0736,-67.0368 51.6667,-107.7777 12.592,-40.7405 18.8883,-80.9256 18.8888,-120.5556 -5e-4,-51.4811 -12.2227,-91.6662 -36.6666,-120.5556 -24.0746,-28.8883 -57.4079,-43.3328 -100,-43.3333 -32.2226,5e-4 -62.2226,7.5931 -90.0001,22.7777 -27.778,15.1857 -51.4817,37.0376 -71.1111,65.5556 -21.4817,30.7412 -38.7039,66.4819 -51.6667,107.2223 -12.5927,40.741 -18.889,79.8151 -18.8888,117.2222"
           style=""
           id="path3155" />
        <path
           d="m 8922.9628,7846.8154 -69.4445,355 -102.2222,0 18.8889,-94.4444 c -30.0005,37.0371 -64.2597,64.8148 -102.7778,83.3333 -38.1485,18.1482 -80.7411,27.2222 -127.7778,27.2222 -52.9632,0 -96.4817,-16.1111 -130.5556,-48.3333 -33.7038,-32.5925 -50.5556,-74.2592 -50.5556,-125 0,-72.5924 28.8889,-129.9997 86.6667,-172.2223 58.148,-42.2218 138.1479,-63.3329 240.0001,-63.3333 l 142.2222,0 5.5556,-27.2222 c 0.7402,-2.9626 1.2957,-6.1107 1.6666,-9.4445 0.3699,-3.7033 0.5551,-9.2588 0.5556,-16.6667 -5e-4,-32.9624 -13.5191,-58.518 -40.5556,-76.6666 -26.6671,-18.518 -64.2597,-27.7773 -112.7778,-27.7778 -33.3337,5e-4 -67.5929,4.2598 -102.7778,12.7778 -34.815,8.519 -70.7409,21.2968 -107.7778,38.3333 l 17.7778,-94.4445 c 38.5183,-14.4438 76.1109,-25.1845 112.7778,-32.2222 37.0367,-7.4068 72.7774,-11.1105 107.2222,-11.1111 73.3329,6e-4 129.0736,15.9266 167.2223,47.7778 38.5179,31.8524 57.7772,78.1487 57.7778,138.8889 -6e-4,12.2227 -0.9266,26.6671 -2.7778,43.3333 -1.8525,16.2967 -4.6302,33.7041 -8.3333,52.2223 m -110.5556,42.2222 -102.2222,0 c -83.7041,3e-4 -145.7411,11.2966 -186.1112,33.8889 -40.0002,22.2225 -60.0001,56.8521 -60,103.8889 -10e-5,32.5927 10.185,58.1483 30.5556,76.6667 20.7405,18.5186 49.259,27.7778 85.5555,27.7778 55.5553,0 104.0738,-19.8148 145.5556,-59.4445 41.481,-39.9998 68.8884,-93.3331 82.2223,-160 l 4.4444,-22.7778"
           style=""
           id="path3157" />
      </g>
      <g
         style="font-size:1820.44482422px;font-style:italic;font-variant:normal;font-weight:normal;font-stretch:normal;line-height:125%;letter-spacing:0px;word-spacing:0px;fill:#000000;fill-opacity:1;stroke:none;font-family:Sans;-inkscape-font-specification:Sans Italic"
         id="text3037">
        <path
           d="m 3641.6322,8572.5545 259.4444,0 c 75.5551,8e-4 133.1476,17.5934 172.7779,52.7777 39.6289,35.186 59.4437,86.6674 59.4444,154.4445 -7e-4,91.1117 -29.2599,162.0375 -87.7778,212.7778 -58.519,50.7411 -140.7412,76.1115 -246.6667,76.1111 l -141.1111,0 -65,333.3334 -112.7778,0 161.6667,-829.4445 m 94.4444,92.2222 -60,311.6667 141.1111,0 c 63.7033,4e-4 112.5922,-16.2959 146.6667,-48.8889 34.0736,-32.5921 51.1106,-79.2587 51.1112,-140 -6e-4,-38.8883 -11.6673,-69.0734 -35.0001,-90.5556 -22.9634,-21.4807 -55.3708,-32.2215 -97.2222,-32.2222 l -146.6667,0"
           style="font-size:1137.7779541px;font-family:Sans;-inkscape-font-specification:Sans Italic"
           id="path3160" />
        <path
           d="m 4747.1879,9046.999 -69.4445,355 -102.2222,0 18.8889,-94.4444 c -30.0005,37.0371 -64.2597,64.8148 -102.7778,83.3333 -38.1485,18.1482 -80.7411,27.2222 -127.7778,27.2222 -52.9632,0 -96.4817,-16.1111 -130.5556,-48.3333 -33.7038,-32.5925 -50.5556,-74.2592 -50.5556,-125 0,-72.5924 28.8889,-129.9998 86.6667,-172.2223 58.148,-42.2218 138.1479,-63.3329 240.0001,-63.3333 l 142.2222,0 5.5556,-27.2222 c 0.7402,-2.9626 1.2957,-6.1107 1.6666,-9.4445 0.3699,-3.7033 0.5551,-9.2588 0.5556,-16.6667 -5e-4,-32.9624 -13.5191,-58.518 -40.5556,-76.6666 -26.6671,-18.518 -64.2597,-27.7773 -112.7778,-27.7778 -33.3337,5e-4 -67.5929,4.2598 -102.7778,12.7778 -34.815,8.519 -70.7409,21.2968 -107.7778,38.3333 l 17.7778,-94.4445 c 38.5183,-14.4438 76.1109,-25.1845 112.7778,-32.2222 37.0367,-7.4068 72.7774,-11.1105 107.2222,-11.1111 73.3329,6e-4 129.0736,15.9266 167.2223,47.7778 38.5179,31.8524 57.7772,78.1487 57.7778,138.8889 -6e-4,12.2227 -0.9266,26.6671 -2.7778,43.3333 -1.8525,16.2967 -4.6302,33.7041 -8.3333,52.2223 m -110.5556,42.2222 -102.2222,0 c -83.7041,3e-4 -145.7411,11.2966 -186.1112,33.8889 -40.0002,22.2225 -60.0001,56.8521 -60,103.8889 -1e-4,32.5927 10.185,58.1483 30.5556,76.6667 20.7405,18.5186 49.259,27.7778 85.5555,27.7778 55.5553,0 104.0738,-19.8148 145.5556,-59.4445 41.481,-39.9998 68.8884,-93.3331 82.2222,-160 l 4.4445,-22.7778"
           style="font-size:1137.7779541px;font-family:Sans;-inkscape-font-specification:Sans Italic"
           id="path3162" />
        <path
           d="m 5341.0768,8874.2212 c -10.3709,-5.5551 -22.2227,-9.8143 -35.5556,-12.7778 -13.3338,-2.9624 -27.593,-4.4439 -42.7778,-4.4445 -54.4448,6e-4 -102.0373,20.7413 -142.7778,62.2223 -40.7409,41.1115 -67.778,96.2967 -81.1111,165.5556 l -62.7778,317.2222 -102.2222,0 121.6667,-622.2223 102.2222,0 -19.4444,96.6667 c 27.0367,-35.9254 59.2589,-63.518 96.6667,-82.7778 37.7774,-19.2586 77.9625,-28.8883 120.5555,-28.8889 11.1107,6e-4 22.0366,0.7414 32.7778,2.2222 10.7403,1.1118 21.481,3.1488 32.2222,6.1111 l -19.4444,101.1112"
           style="font-size:1137.7779541px;font-family:Sans;-inkscape-font-specification:Sans Italic"
           id="path3164" />
        <path
           d="m 5783.8547,8779.7767 -15.5555,79.4445 -203.889,0 -66.1111,337.7778 c -2.2224,12.5928 -3.8891,23.1483 -5,31.6667 -1.1113,8.5186 -1.6668,15.1853 -1.6667,20 -1e-4,23.7038 7.0369,40.926 21.1112,51.6666 14.4442,10.7409 37.4071,16.1112 68.8889,16.1112 l 103.3333,0 -17.2222,85.5555 -97.7778,0 c -60.741,0 -106.1113,-11.8518 -136.1111,-35.5555 -29.6298,-23.7037 -44.4446,-59.6296 -44.4445,-107.7778 -1e-4,-8.5184 0.5555,-17.7777 1.6667,-27.7778 1.111,-10.3702 2.7777,-21.6665 5,-33.8889 l 66.1111,-337.7778 -86.6667,0 16.1111,-79.4445 85,0 34.4445,-176.6667 102.2222,0 -33.8889,176.6667 204.4445,0"
           style="font-size:1137.7779541px;font-family:Sans;-inkscape-font-specification:Sans Italic"
           id="path3166" />
        <path
           d="m 5957.7435,8537.5544 102.2223,0 -25,129.4445 -102.2223,0 25,-129.4445 m -46.6667,242.2223 102.2223,0 -121.6667,622.2223 -102.2222,0 121.6666,-622.2223"
           style="font-size:1137.7779541px;font-family:Sans;-inkscape-font-specification:Sans Italic"
           id="path3168" />
        <path
           d="m 6674.9659,8803.6656 -20.5555,101.1111 c -24.4451,-17.7772 -50.5561,-31.1106 -78.3334,-40 -27.4079,-8.8883 -55.9264,-13.3328 -85.5556,-13.3333 -32.5929,5e-4 -63.704,5.7413 -93.3333,17.2222 -29.2596,11.482 -53.8892,27.7783 -73.8889,48.8889 -31.8521,32.2227 -56.4817,70.0004 -73.8889,113.3334 -17.4076,43.3336 -26.1113,88.1484 -26.1111,134.4444 -2e-4,55.9261 13.8887,97.5928 41.6667,125 28.1479,27.4075 70.7404,41.1112 127.7777,41.1112 28.1478,0 57.9626,-4.2592 89.4445,-12.7778 31.8514,-8.5185 64.9995,-21.2962 99.4445,-38.3334 l -19.4445,101.1112 c -29.6301,12.2222 -60.1856,21.2963 -91.6667,27.2222 -31.1115,6.2963 -63.1485,9.4444 -96.1111,9.4444 -82.5928,0 -146.1113,-20.5555 -190.5556,-61.6666 -44.4445,-41.4814 -66.6667,-100.5555 -66.6666,-177.2223 -1e-4,-64.4442 11.4814,-123.7034 34.4444,-177.7778 23.3332,-54.444 57.7776,-103.3328 103.3333,-146.6667 31.1109,-29.629 67.5924,-52.0364 109.4445,-67.2222 41.8515,-15.1846 87.5922,-22.7772 137.2223,-22.7778 28.8884,6e-4 57.5921,3.334 86.1111,10 28.518,6.2969 57.592,15.9265 87.2222,28.8889"
           style="font-size:1137.7779541px;font-family:Sans;-inkscape-font-specification:Sans Italic"
           id="path3170" />
        <path
           d="m 6767.7437,9155.3323 72.7778,-375.5556 102.7778,0 -72.7778,371.6667 c -3.7039,18.1484 -6.4817,33.704 -8.3333,46.6667 -1.4817,12.9632 -2.2224,23.7039 -2.2223,32.2222 -1e-4,31.4817 9.6295,55.9261 28.8889,73.3334 19.2591,17.0371 46.4813,25.5556 81.6667,25.5555 54.8145,10e-5 102.2219,-18.5184 142.2222,-55.5555 39.9996,-37.0369 66.1107,-86.8517 78.3334,-149.4445 l 68.3333,-344.4445 102.2223,0 -120.5556,622.2223 -102.2222,0 20.5555,-97.7778 c -28.8893,36.2964 -63.3337,64.4445 -103.3333,84.4445 -39.63,19.6296 -81.8522,29.4444 -126.6667,29.4444 -54.4447,0 -96.852,-14.8148 -127.2223,-44.4444 -30.3704,-30 -45.5556,-71.6666 -45.5555,-125 -1e-4,-11.111 0.9258,-24.9999 2.7778,-41.6667 1.8517,-16.6665 4.6295,-33.8887 8.3333,-51.6667"
           style="font-size:1137.7779541px;font-family:Sans;-inkscape-font-specification:Sans Italic"
           id="path3172" />
        <path
           d="m 7622.1883,8537.5544 102.2223,0 -168.3334,864.4446 -102.2222,0 168.3333,-864.4446"
           style="font-size:1137.7779541px;font-family:Sans;-inkscape-font-specification:Sans Italic"
           id="path3174" />
        <path
           d="m 8340.5216,9046.999 -69.4444,355 -102.2223,0 18.8889,-94.4444 c -30.0004,37.0371 -64.2597,64.8148 -102.7778,83.3333 -38.1485,18.1482 -80.741,27.2222 -127.7778,27.2222 -52.9631,0 -96.4816,-16.1111 -130.5556,-48.3333 -33.7037,-32.5925 -50.5556,-74.2592 -50.5555,-125 -1e-4,-72.5924 28.8888,-129.9998 86.6667,-172.2223 58.1479,-42.2218 138.1479,-63.3329 240,-63.3333 l 142.2222,0 5.5556,-27.2222 c 0.7402,-2.9626 1.2958,-6.1107 1.6667,-9.4445 0.3698,-3.7033 0.555,-9.2588 0.5555,-16.6667 -5e-4,-32.9624 -13.519,-58.518 -40.5555,-76.6666 -26.6672,-18.518 -64.2597,-27.7773 -112.7778,-27.7778 -33.3337,5e-4 -67.5929,4.2598 -102.7778,12.7778 -34.8151,8.519 -70.741,21.2968 -107.7778,38.3333 l 17.7778,-94.4445 c 38.5183,-14.4438 76.1108,-25.1845 112.7777,-32.2222 37.0368,-7.4068 72.7775,-11.1105 107.2223,-11.1111 73.3329,6e-4 129.0736,15.9266 167.2222,47.7778 38.518,31.8524 57.7772,78.1487 57.7778,138.8889 -6e-4,12.2227 -0.9265,26.6671 -2.7778,43.3333 -1.8524,16.2967 -4.6302,33.7041 -8.3333,52.2223 m -110.5556,42.2222 -102.2222,0 c -83.704,3e-4 -145.741,11.2966 -186.1111,33.8889 -40.0002,22.2225 -60.0002,56.8521 -60.0001,103.8889 -1e-4,32.5927 10.1851,58.1483 30.5556,76.6667 20.7405,18.5186 49.259,27.7778 85.5556,27.7778 55.5552,0 104.0737,-19.8148 145.5556,-59.4445 41.481,-39.9998 68.8884,-93.3331 82.2222,-160 l 4.4444,-22.7778"
           style="font-size:1137.7779541px;font-family:Sans;-inkscape-font-specification:Sans Italic"
           id="path3176" />
        <path
           d="m 8908.2994,8779.7767 -15.5555,79.4445 -203.889,0 -66.1111,337.7778 c -2.2224,12.5928 -3.8891,23.1483 -5,31.6667 -1.1113,8.5186 -1.6668,15.1853 -1.6666,20 -2e-4,23.7038 7.0368,40.926 21.1111,51.6666 14.4442,10.7409 37.4071,16.1112 68.8889,16.1112 l 103.3333,0 -17.2222,85.5555 -97.7778,0 c -60.741,0 -106.1113,-11.8518 -136.1111,-35.5555 -29.6298,-23.7037 -44.4446,-59.6296 -44.4445,-107.7778 -1e-4,-8.5184 0.5555,-17.7777 1.6667,-27.7778 1.111,-10.3702 2.7777,-21.6665 5,-33.8889 l 66.1111,-337.7778 -86.6667,0 16.1111,-79.4445 85,0 34.4445,-176.6667 102.2222,0 -33.8889,176.6667 204.4445,0"
           style="font-size:1137.7779541px;font-family:Sans;-inkscape-font-specification:Sans Italic"
           id="path3178" />
        <path
           d="m 9421.0775,9035.3323 c 1.1106,-5.9256 1.8513,-12.0367 2.2223,-18.3333 0.7401,-6.2959 1.1105,-12.5922 1.1111,-18.8889 -6e-4,-45.1848 -13.3339,-80.9255 -40,-107.2223 -26.2968,-26.2957 -62.2227,-39.4439 -107.7778,-39.4444 -50.7411,5e-4 -95.5559,16.1116 -134.4445,48.3333 -38.8891,31.8524 -68.3335,77.2227 -88.3333,136.1112 l 367.2222,-0.5556 m 88.8889,80 -475.5556,0 c -2.2224,14.0744 -3.7039,25.1855 -4.4444,33.3334 -0.7409,8.1483 -1.1113,15.1854 -1.1112,21.1111 -10e-5,51.4816 15.7406,91.2964 47.2223,119.4444 31.8516,28.1483 76.6664,42.2223 134.4444,42.2223 44.4441,0 86.4811,-5 126.1112,-15 39.6291,-10 76.4809,-24.6296 110.5555,-43.8889 l -19.4444,101.1111 c -36.6672,14.8148 -74.6301,25.9259 -113.8889,33.3333 -38.8893,7.4074 -78.5189,11.1111 -118.8889,11.1111 -86.2966,0 -152.778,-20.5555 -199.4445,-61.6666 -46.2964,-41.4814 -69.4445,-100.1851 -69.4444,-176.1112 -10e-5,-64.8145 11.4814,-124.9997 34.4444,-180.5556 23.3332,-55.9254 57.4073,-105.7402 102.2222,-149.4444 28.8887,-27.4069 63.1479,-48.518 102.7778,-63.3334 39.9997,-14.8142 82.4071,-22.2216 127.2223,-22.2222 70.3699,6e-4 126.2957,21.1117 167.7778,63.3333 41.8512,42.2228 62.7771,98.8894 62.7778,170.0001 -7e-4,17.0374 -1.1118,35.3707 -3.3334,55 -2.2228,19.2596 -5.5562,40.0003 -10,62.2222"
           style="font-size:1137.7779541px;font-family:Sans;-inkscape-font-specification:Sans Italic"
           id="path3180" />
        <path
           d="m 10128.3,8572.5545 168.333,0 96.667,558.8889 321.111,-558.8889 172.778,0 -161.667,829.4445 -108.889,0 141.111,-727.2223 -325.555,567.7779 -109.445,0 -105.555,-570.0001 -141.112,729.4445 -109.444,0 161.667,-829.4445"
           style="font-size:1137.7779541px;font-family:Sans;-inkscape-font-specification:Sans Italic"
           id="path3182" />
        <path
           d="m 11207.189,9418.1101 c -72.963,0 -130.741,-22.4074 -173.333,-67.2222 -42.223,-45.1851 -63.334,-106.6665 -63.334,-184.4445 0,-45.1849 7.222,-91.1108 21.667,-137.7778 14.815,-47.0366 33.889,-86.481 57.222,-118.3333 36.667,-49.6291 77.593,-86.2958 122.778,-110 45.185,-23.7031 96.296,-35.555 153.333,-35.5556 70.741,6e-4 127.778,22.0377 171.111,66.1111 43.704,44.0746 65.555,101.6672 65.556,172.7778 -0,49.2596 -7.223,98.3337 -21.667,147.2223 -14.445,48.8891 -33.334,89.4446 -56.666,121.6667 -36.297,49.6297 -77.038,86.2963 -122.223,110 -45.185,23.7037 -96.667,35.5555 -154.444,35.5555 m -130.556,-255 c 0,56.2965 11.667,98.5187 35,126.6667 23.704,27.7779 59.445,41.6667 107.223,41.6667 68.518,0 125.184,-29.8148 170,-89.4445 45.184,-59.9998 67.777,-135.9257 67.777,-227.7778 0,-53.7033 -12.037,-94.2588 -36.111,-121.6667 -24.074,-27.4069 -59.445,-41.1106 -106.111,-41.1111 -38.519,5e-4 -72.778,9.0746 -102.778,27.2222 -30,17.7783 -56.852,45.0005 -80.555,81.6667 -17.408,27.4078 -30.926,58.7041 -40.556,93.8889 -9.259,35.1855 -13.889,71.4818 -13.889,108.8889"
           style="font-size:1137.7779541px;font-family:Sans;-inkscape-font-specification:Sans Italic"
           id="path3184" />
        <path
           d="m 12247.745,9026.4434 -72.778,375.5556 -102.778,0 72.778,-371.6667 c 3.333,-17.407 5.925,-32.7774 7.778,-46.1111 1.851,-13.3329 2.777,-23.8885 2.777,-31.6667 0,-31.1106 -9.815,-55.3699 -29.444,-72.7778 -19.63,-17.4069 -47.037,-26.1105 -82.222,-26.1111 -54.815,6e-4 -102.038,18.3339 -141.667,55 -39.63,36.2968 -65.556,85.7412 -77.778,148.3334 l -68.333,345 -102.222,0 120.555,-622.2223 102.223,0 -20.556,97.7778 c 28.518,-35.9254 62.777,-63.7031 102.778,-83.3333 39.999,-19.6291 82.036,-29.4439 126.111,-29.4445 54.814,6e-4 97.222,14.8154 127.222,44.4445 30.37,29.6302 45.555,71.2968 45.556,125 -0,13.3338 -0.927,27.593 -2.778,42.7778 -1.482,15.1856 -3.89,31.667 -7.222,49.4444"
           style="font-size:1137.7779541px;font-family:Sans;-inkscape-font-specification:Sans Italic"
           id="path3186" />
        <path
           d="m 12544.411,8537.5544 102.222,0 -25,129.4445 -102.222,0 25,-129.4445 m -46.666,242.2223 102.222,0 -121.667,622.2223 -102.222,0 121.667,-622.2223"
           style="font-size:1137.7779541px;font-family:Sans;-inkscape-font-specification:Sans Italic"
           id="path3188" />
        <path
           d="m 13132.745,8779.7767 -15.556,79.4445 -203.889,0 -66.111,337.7778 c -2.222,12.5928 -3.889,23.1483 -5,31.6667 -1.111,8.5186 -1.667,15.1853 -1.667,20 0,23.7038 7.037,40.926 21.112,51.6666 14.444,10.7409 37.407,16.1112 68.888,16.1112 l 103.334,0 -17.222,85.5555 -97.778,0 c -60.741,0 -106.111,-11.8518 -136.111,-35.5555 -29.63,-23.7037 -44.445,-59.6296 -44.445,-107.7778 0,-8.5184 0.556,-17.7777 1.667,-27.7778 1.111,-10.3702 2.778,-21.6665 5,-33.8889 l 66.111,-337.7778 -86.667,0 16.111,-79.4445 85,0 34.445,-176.6667 102.222,0 -33.889,176.6667 204.445,0"
           style="font-size:1137.7779541px;font-family:Sans;-inkscape-font-specification:Sans Italic"
           id="path3190" />
        <path
           d="m 13387.189,9418.1101 c -72.963,0 -130.74,-22.4074 -173.333,-67.2222 -42.222,-45.1851 -63.333,-106.6665 -63.333,-184.4445 0,-45.1849 7.222,-91.1108 21.666,-137.7778 14.815,-47.0366 33.889,-86.481 57.223,-118.3333 36.666,-49.6291 77.592,-86.2958 122.777,-110 45.185,-23.7031 96.296,-35.555 153.334,-35.5556 70.74,6e-4 127.777,22.0377 171.111,66.1111 43.703,44.0746 65.555,101.6672 65.556,172.7778 -0,49.2596 -7.223,98.3337 -21.667,147.2223 -14.445,48.8891 -33.334,89.4446 -56.667,121.6667 -36.297,49.6297 -77.037,86.2963 -122.222,110 -45.186,23.7037 -96.667,35.5555 -154.445,35.5555 m -130.555,-255 c 0,56.2965 11.666,98.5187 35,126.6667 23.703,27.7779 59.444,41.6667 107.222,41.6667 68.518,0 125.185,-29.8148 170,-89.4445 45.185,-59.9998 67.777,-135.9257 67.778,-227.7778 -0,-53.7033 -12.038,-94.2588 -36.111,-121.6667 -24.075,-27.4069 -59.445,-41.1106 -106.111,-41.1111 -38.519,5e-4 -72.778,9.0746 -102.778,27.2222 -30,17.7783 -56.852,45.0005 -80.556,81.6667 -17.407,27.4078 -30.926,58.7041 -40.555,93.8889 -9.26,35.1855 -13.889,71.4818 -13.889,108.8889"
           style="font-size:1137.7779541px;font-family:Sans;-inkscape-font-specification:Sans Italic"
           id="path3192" />
        <path
           d="m 14301.079,8874.2212 c -10.371,-5.5551 -22.223,-9.8143 -35.556,-12.7778 -13.334,-2.9624 -27.593,-4.4439 -42.778,-4.4445 -54.445,6e-4 -102.037,20.7413 -142.778,62.2223 -40.741,41.1115 -67.778,96.2967 -81.111,165.5556 l -62.778,317.2222 -102.222,0 121.667,-622.2223 102.222,0 -19.444,96.6667 c 27.036,-35.9254 59.259,-63.518 96.666,-82.7778 37.778,-19.2586 77.963,-28.8883 120.556,-28.8889 11.111,6e-4 22.036,0.7414 32.778,2.2222 10.74,1.1118 21.481,3.1488 32.222,6.1111 l -19.444,101.1112"
           style="font-size:1137.7779541px;font-family:Sans;-inkscape-font-specification:Sans Italic"
           id="path3194" />
        <path
           d="m 14706.634,8779.7767 108.334,0 91.111,528.889 297.778,-528.889 108.333,0 -353.889,622.2223 -137.778,0 -113.889,-622.2223"
           style="font-size:1137.7779541px;font-family:Sans;-inkscape-font-specification:Sans Italic"
           id="path3196" />
        <path
           d="m 15372.189,9307.5546 183.334,0 123.889,-638.3335 -207.223,40 19.445,-96.6666 206.111,-40 112.778,0 -143.334,735.0001 182.778,0 -17.777,94.4444 -478.334,0 18.333,-94.4444"
           style="font-size:1137.7779541px;font-family:Sans;-inkscape-font-specification:Sans Italic"
           id="path3198" />
        <path
           d="m 16116.078,9260.8879 117.222,0 -27.222,141.1111 -117.222,0 27.222,-141.1111"
           style="font-size:1137.7779541px;font-family:Sans;-inkscape-font-specification:Sans Italic"
           id="path3200" />
        <path
           d="m 16819.412,8557.5544 c 75.185,9e-4 132.592,25.0009 172.222,75.0001 40,50.0007 60,121.8525 60,215.5555 0,71.1117 -9.445,141.8523 -28.333,212.2223 -18.519,70.0003 -44.63,132.778 -78.333,188.3334 -34.445,55.5556 -75.001,97.7778 -121.667,126.6667 -46.297,28.5185 -97.593,42.7777 -153.889,42.7777 -72.593,0 -128.704,-25.1851 -168.333,-75.5555 -39.63,-50.3703 -59.445,-122.0369 -59.445,-215.0001 0,-70.37 9.445,-140.7403 28.334,-211.1111 19.259,-70.7402 45.925,-133.7031 80,-188.8889 34.073,-55.5549 73.888,-97.777 119.444,-126.6667 45.926,-28.8881 95.926,-43.3325 150,-43.3334 m -6.667,88.889 c -28.148,7e-4 -55,7.5933 -80.555,22.7777 -25.186,14.8156 -47.963,36.8526 -68.334,66.1112 -34.074,48.8895 -61.296,110.0005 -81.666,183.3333 -20,72.9634 -30,147.9633 -30,225.0001 0,61.1113 10.74,107.4075 32.222,138.8889 21.852,31.1112 53.889,46.6667 96.111,46.6666 29.629,10e-5 57.037,-7.4073 82.222,-22.2222 25.185,-15.1851 47.963,-37.4073 68.334,-66.6667 33.703,-48.5183 60.37,-109.259 80,-182.2222 19.999,-73.3329 29.999,-148.7033 30,-226.1112 -0,-61.1105 -10.927,-107.2215 -32.778,-138.3333 -21.482,-31.4808 -53.334,-47.2215 -95.556,-47.2222"
           style="font-size:1137.7779541px;font-family:Sans;-inkscape-font-specification:Sans Italic"
           id="path3202" />
      </g>
    </g>
    <rect
       x="535.06299"
       y="606.98071"
       width="143.73616"
       height="11.104575"
       rx="2.0244527"
       ry="0.46269065"
       style="fill:none;stroke:#000000;stroke-width:0.24582888"
       id="rect8-3"
       transform="matrix(0.8660254,-0.5,0.5,0.8660254,0,0)" />
    <rect
       x="551.16748"
       y="579.08698"
       width="143.73616"
       height="11.104575"
       rx="2.0244527"
       ry="0.46269065"
       style="fill:none;stroke:#000000;stroke-width:0.24582888"
       id="rect8-3-1"
       transform="matrix(0.8660254,-0.5,0.5,0.8660254,0,0)" />
    <rect
       x="566.42432"
       y="552.66132"
       width="143.73616"
       height="11.104575"
       rx="2.0244527"
       ry="0.46269065"
       style="fill:none;stroke:#000000;stroke-width:0.24582888"
       id="rect8-3-1-5"
       transform="matrix(0.8660254,-0.5,0.5,0.8660254,0,0)" />
    <rect
       x="374.18393"
       y="881.4386"
       width="143.73616"
       height="11.104575"
       rx="2.0244527"
       ry="0.46269065"
       style="fill:none;stroke:#000000;stroke-width:0.24582888"
       id="rect8-3-3"
       transform="matrix(0.8660254,-0.5,0.5,0.8660254,0,0)" />
    <rect
       x="390.28842"
       y="853.54486"
       width="143.73616"
       height="11.104575"
       rx="2.0244527"
       ry="0.46269065"
       style="fill:none;stroke:#000000;stroke-width:0.24582888"
       id="rect8-3-1-7"
       transform="matrix(0.8660254,-0.5,0.5,0.8660254,0,0)" />
    <rect
       x="405.54526"
       y="827.1192"
       width="143.73616"
       height="11.104575"
       rx="2.0244527"
       ry="0.46269065"
       style="fill:none;stroke:#000000;stroke-width:0.24582888"
       id="rect8-3-1-5-7"
       transform="matrix(0.8660254,-0.5,0.5,0.8660254,0,0)" />
  </g>
  <!-- Back-->
  <g
     transform="translate(382.50031,22.499556)"
     id="g32">
    <polygon
       style="fill:none;stroke:#000000;stroke-width:0.90000075"
       points="84.330778,9.0000074 105.59064,9.0000074 105.59064,0 126.8505,0 126.8505,9.0000074 148.11036,9.0000074 148.11036,0 169.37022,0 169.37022,9.0000074 190.63008,9.0000074 190.63008,0 211.88994,0 211.88994,9.0000074 233.1498,9.0000074 233.1498,0 254.40966,0 254.40966,9.0000074 275.66952,9.0000074 275.66952,0 296.92938,0 296.92938,9.0000074 328.46484,9.0000074 328.46484,0 360.0003,0 360.0003,30.91538 351.00029,30.91538 351.00029,61.83076 360.0003,61.83076 360.0003,83.09062 351.00029,83.09062 351.00029,104.35048 360.0003,104.35048 360.0003,125.61034 351.00029,125.61034 351.00029,146.8702 360.0003,146.8702 360.0003,168.13006 351.00029,168.13006 351.00029,189.38992 360.0003,189.38992 360.0003,210.64978 351.00029,210.64978 351.00029,231.90964 360.0003,231.90964 360.0003,253.1695 351.00029,253.1695 351.00029,284.08488 360.0003,284.08488 360.0003,315.00026 328.46484,315.00026 328.46484,306.00025 296.92938,306.00025 296.92938,315.00026 275.66952,315.00026 275.66952,306.00025 254.40966,306.00025 254.40966,315.00026 233.1498,315.00026 233.1498,306.00025 211.88994,306.00025 211.88994,315.00026 190.63008,315.00026 190.63008,306.00025 169.37022,306.00025 169.37022,315.00026 148.11036,315.00026 148.11036,306.00025 126.8505,306.00025 126.8505,315.00026 105.59064,315.00026 105.59064,306.00025 84.330778,306.00025 84.330778,315.00026 63.070918,315.00026 63.070918,306.00025 31.535459,306.00025 31.535459,315.00026 0,315.00026 0,284.08488 9.0000074,284.08488 9.0000074,253.1695 0,253.1695 0,231.90964 9.0000074,231.90964 9.0000074,210.64978 0,210.64978 0,189.38992 9.0000074,189.38992 9.0000074,168.13006 0,168.13006 0,146.8702 9.0000074,146.8702 9.0000074,125.61034 0,125.61034 0,104.35048 9.0000074,104.35048 9.0000074,83.09062 0,83.09062 0,61.83076 9.0000074,61.83076 9.0000074,30.91538 0,30.91538 0,0 31.535459,0 31.535459,9.0000074 63.070918,9.0000074 63.070918,0 84.330778,0 "
       id="polygon34" />
  </g>
  <!-- Left-->
  <g
     transform="translate(742.50061,22.499556)"
     id="g36">
    <polygon
       style="fill:none;stroke:#000000;stroke-width:0.90000075"
       points="80.610303,9.0000074 101.87016,9.0000074 101.87016,0 123.13002,0 123.13002,9.0000074 144.38988,9.0000074 144.38988,0 165.64974,0 165.64974,9.0000074 195.32496,9.0000074 195.32496,0 216.00018,0 216.00018,30.91538 225.00018,30.91538 225.00018,61.83076 216.00018,61.83076 216.00018,83.09062 225.00018,83.09062 225.00018,104.35048 216.00018,104.35048 216.00018,125.61034 225.00018,125.61034 225.00018,146.8702 216.00018,146.8702 216.00018,168.13006 225.00018,168.13006 225.00018,189.38992 216.00018,189.38992 216.00018,210.64978 225.00018,210.64978 225.00018,231.90964 216.00018,231.90964 216.00018,253.1695 225.00018,253.1695 225.00018,284.08488 216.00018,284.08488 216.00018,315.00026 195.32496,315.00026 195.32496,306.00025 165.64974,306.00025 165.64974,315.00026 144.38988,315.00026 144.38988,306.00025 123.13002,306.00025 123.13002,315.00026 101.87016,315.00026 101.87016,306.00025 80.610303,306.00025 80.610303,315.00026 59.350442,315.00026 59.350442,306.00025 29.675221,306.00025 29.675221,315.00026 9.0000074,315.00026 9.0000074,284.08488 0,284.08488 0,253.1695 9.0000074,253.1695 9.0000074,231.90964 0,231.90964 0,210.64978 9.0000074,210.64978 9.0000074,189.38992 0,189.38992 0,168.13006 9.0000074,168.13006 9.0000074,146.8702 0,146.8702 0,125.61034 9.0000074,125.61034 9.0000074,104.35048 0,104.35048 0,83.09062 9.0000074,83.09062 9.0000074,61.83076 0,61.83076 0,30.91538 9.0000074,30.91538 9.0000074,0 29.675221,0 29.675221,9.0000074 59.350442,9.0000074 59.350442,0 80.610303,0 "
       id="polygon38" />
  </g>
  <!-- Right-->
  <g
     transform="translate(742.50061,337.50056)"
     id="g40">
    <polygon
       style="fill:none;stroke:#000000;stroke-width:0.90000075"
       points="80.610303,9.0000074 101.87016,9.0000074 101.87016,0 123.13002,0 123.13002,9.0000074 144.38988,9.0000074 144.38988,0 165.64974,0 165.64974,9.0000074 195.32496,9.0000074 195.32496,0 216.00018,0 216.00018,30.91538 225.00018,30.91538 225.00018,61.83076 216.00018,61.83076 216.00018,83.09062 225.00018,83.09062 225.00018,104.35048 216.00018,104.35048 216.00018,125.61034 225.00018,125.61034 225.00018,146.8702 216.00018,146.8702 216.00018,168.13006 225.00018,168.13006 225.00018,189.38992 216.00018,189.38992 216.00018,210.64978 225.00018,210.64978 225.00018,231.90964 216.00018,231.90964 216.00018,253.1695 225.00018,253.1695 225.00018,284.08488 216.00018,284.08488 216.00018,315.00026 195.32496,315.00026 195.32496,306.00025 165.64974,306.00025 165.64974,315.00026 144.38988,315.00026 144.38988,306.00025 123.13002,306.00025 123.13002,315.00026 101.87016,315.00026 101.87016,306.00025 80.610303,306.00025 80.610303,315.00026 59.350442,315.00026 59.350442,306.00025 29.675221,306.00025 29.675221,315.00026 9.0000074,315.00026 9.0000074,284.08488 0,284.08488 0,253.1695 9.0000074,253.1695 9.0000074,231.90964 0,231.90964 0,210.64978 9.0000074,210.64978 9.0000074,189.38992 0,189.38992 0,168.13006 9.0000074,168.13006 9.0000074,146.8702 0,146.8702 0,125.61034 9.0000074,125.61034 9.0000074,104.35048 0,104.35048 0,83.09062 9.0000074,83.09062 9.0000074,61.83076 0,61.83076 0,30.91538 9.0000074,30.91538 9.0000074,0 29.675221,0 29.675221,9.0000074 59.350442,9.0000074 59.350442,0 80.610303,0 "
       id="polygon42" />
  </g>
  <!-- Top-->
  <g
     transform="translate(22.500018,337.50056)"
     id="g44">
    <polygon
       style="fill:none;stroke:#000000;stroke-width:0.90000075"
       points="84.330778,0 105.59064,0 105.59064,9.0000074 126.8505,9.0000074 126.8505,0 148.11036,0 148.11036,9.0000074 169.37022,9.0000074 169.37022,0 190.63008,0 190.63008,9.0000074 211.88994,9.0000074 211.88994,0 233.1498,0 233.1498,9.0000074 254.40966,9.0000074 254.40966,0 275.66952,0 275.66952,9.0000074 296.92938,9.0000074 296.92938,0 328.46484,0 328.46484,9.0000074 351.00029,9.0000074 351.00029,29.675221 360.0003,29.675221 360.0003,59.350442 351.00029,59.350442 351.00029,80.610303 360.0003,80.610303 360.0003,101.87016 351.00029,101.87016 351.00029,123.13002 360.0003,123.13002 360.0003,144.38988 351.00029,144.38988 351.00029,165.64974 360.0003,165.64974 360.0003,195.32496 351.00029,195.32496 351.00029,216.00018 328.46484,216.00018 328.46484,225.00018 296.92938,225.00018 296.92938,216.00018 275.66952,216.00018 275.66952,225.00018 254.40966,225.00018 254.40966,216.00018 233.1498,216.00018 233.1498,225.00018 211.88994,225.00018 211.88994,216.00018 190.63008,216.00018 190.63008,225.00018 169.37022,225.00018 169.37022,216.00018 148.11036,216.00018 148.11036,225.00018 126.8505,225.00018 126.8505,216.00018 105.59064,216.00018 105.59064,225.00018 84.330778,225.00018 84.330778,216.00018 63.070918,216.00018 63.070918,225.00018 31.535459,225.00018 31.535459,216.00018 9.0000074,216.00018 9.0000074,195.32496 0,195.32496 0,165.64974 9.0000074,165.64974 9.0000074,144.38988 0,144.38988 0,123.13002 9.0000074,123.13002 9.0000074,101.87016 0,101.87016 0,80.610303 9.0000074,80.610303 9.0000074,59.350442 0,59.350442 0,29.675221 9.0000074,29.675221 9.0000074,9.0000074 31.535459,9.0000074 31.535459,0 63.070918,0 63.070918,9.0000074 84.330778,9.0000074 "
       id="polygon46" />
  </g>
  <!-- Bottom-->
  <g
     transform="translate(382.50031,337.50056)"
     id="g48">
    <polygon
       style="fill:none;stroke:#000000;stroke-width:0.90000075"
       points="84.330778,0 105.59064,0 105.59064,9.0000074 126.8505,9.0000074 126.8505,0 148.11036,0 148.11036,9.0000074 169.37022,9.0000074 169.37022,0 190.63008,0 190.63008,9.0000074 211.88994,9.0000074 211.88994,0 233.1498,0 233.1498,9.0000074 254.40966,9.0000074 254.40966,0 275.66952,0 275.66952,9.0000074 296.92938,9.0000074 296.92938,0 328.46484,0 328.46484,9.0000074 351.00029,9.0000074 351.00029,29.675221 360.0003,29.675221 360.0003,59.350442 351.00029,59.350442 351.00029,80.610303 360.0003,80.610303 360.0003,101.87016 351.00029,101.87016 351.00029,123.13002 360.0003,123.13002 360.0003,144.38988 351.00029,144.38988 351.00029,165.64974 360.0003,165.64974 360.0003,195.32496 351.00029,195.32496 351.00029,216.00018 328.46484,216.00018 328.46484,225.00018 296.92938,225.00018 296.92938,216.00018 275.66952,216.00018 275.66952,225.00018 254.40966,225.00018 254.40966,216.00018 233.1498,216.00018 233.1498,225.00018 211.88994,225.00018 211.88994,216.00018 190.63008,216.00018 190.63008,225.00018 169.37022,225.00018 169.37022,216.00018 148.11036,216.00018 148.11036,225.00018 126.8505,225.00018 126.8505,216.00018 105.59064,216.00018 105.59064,225.00018 84.330778,225.00018 84.330778,216.00018 63.070918,216.00018 63.070918,225.00018 31.535459,225.00018 31.535459,216.00018 9.0000074,216.00018 9.0000074,195.32496 0,195.32496 0,165.64974 9.0000074,165.64974 9.0000074,144.38988 0,144.38988 0,123.13002 9.0000074,123.13002 9.0000074,101.87016 0,101.87016 0,80.610303 9.0000074,80.610303 9.0000074,59.350442 0,59.350442 0,29.675221 9.0000074,29.675221 9.0000074,9.0000074 31.535459,9.0000074 31.535459,0 63.070918,0 63.070918,9.0000074 84.330778,9.0000074 "
       id="polygon50" />
  </g>
</svg>
