<?xml version="1.0" encoding="utf-8"?>
<!-- Generator: Adobe Illustrator 17.0.0, SVG Export Plug-In . SVG Version: 6.00 Build 0)  -->
<!DOCTYPE svg PUBLIC "-//W3C//DTD SVG 1.1//EN" "http://www.w3.org/Graphics/SVG/1.1/DTD/svg11.dtd">
<svg version="1.1" id="Layer_1" xmlns="http://www.w3.org/2000/svg" xmlns:xlink="http://www.w3.org/1999/xlink" x="0px" y="0px"
	 width="792px" height="540px" viewBox="0 0 792 540" enable-background="new 0 0 792 540" xml:space="preserve">
<g transform="translate(22.5000185, 22.5000185) ">
	<polygon fill="none" stroke="#0000FF" stroke-width="0.0354" points="-4.5,-4.5 20.728,-4.5 20.728,3.154 45.957,3.154 
		45.957,-4.5 62.965,-4.5 62.965,3.154 79.972,3.154 79.972,-4.5 96.98,-4.5 96.98,3.154 113.988,3.154 113.988,-4.5 130.996,-4.5 
		130.996,3.154 148.004,3.154 148.004,-4.5 165.012,-4.5 165.012,3.154 182.02,3.154 182.02,-4.5 199.028,-4.5 199.028,3.154 
		216.035,3.154 216.035,-4.5 233.043,-4.5 233.043,3.154 258.272,3.154 258.272,-4.5 283.5,-4.5 283.5,20.232 275.846,20.232 
		275.846,44.965 283.5,44.965 283.5,61.972 275.846,61.972 275.846,78.98 283.5,78.98 283.5,95.988 275.846,95.988 275.846,112.996 
		283.5,112.996 283.5,130.004 275.846,130.004 275.846,147.012 283.5,147.012 283.5,164.02 275.846,164.02 275.846,181.028 
		283.5,181.028 283.5,198.035 275.846,198.035 275.846,222.768 283.5,222.768 283.5,247.5 258.272,247.5 258.272,239.846 
		233.043,239.846 233.043,247.5 216.035,247.5 216.035,239.846 199.028,239.846 199.028,247.5 182.02,247.5 182.02,239.846 
		165.012,239.846 165.012,247.5 148.004,247.5 148.004,239.846 130.996,239.846 130.996,247.5 113.988,247.5 113.988,239.846 
		96.98,239.846 96.98,247.5 79.972,247.5 79.972,239.846 62.965,239.846 62.965,247.5 45.957,247.5 45.957,239.846 20.728,239.846 
		20.728,247.5 -4.5,247.5 -4.5,222.768 3.154,222.768 3.154,198.035 -4.5,198.035 -4.5,181.028 3.154,181.028 3.154,164.02 
		-4.5,164.02 -4.5,147.012 3.154,147.012 3.154,130.004 -4.5,130.004 -4.5,112.996 3.154,112.996 3.154,95.988 -4.5,95.988 
		-4.5,78.98 3.154,78.98 3.154,61.972 -4.5,61.972 -4.5,44.965 3.154,44.965 3.154,20.232 -4.5,20.232 	"/>
</g>
<g transform="translate(382.50031449999994, 22.5000185) ">
	<polygon fill="none" stroke="#0000FF" stroke-width="0.0354" points="-76.5,-4.5 -51.272,-4.5 -51.272,3.154 -26.044,3.154 
		-26.044,-4.5 -9.036,-4.5 -9.036,3.154 7.972,3.154 7.972,-4.5 24.98,-4.5 24.98,3.154 41.988,3.154 41.988,-4.5 58.996,-4.5 
		58.996,3.154 76.004,3.154 76.004,-4.5 93.011,-4.5 93.011,3.154 110.019,3.154 110.019,-4.5 127.027,-4.5 127.027,3.154 
		144.035,3.154 144.035,-4.5 161.043,-4.5 161.043,3.154 186.271,3.154 186.271,-4.5 211.5,-4.5 211.5,20.232 203.846,20.232 
		203.846,44.965 211.5,44.965 211.5,61.972 203.846,61.972 203.846,78.98 211.5,78.98 211.5,95.988 203.846,95.988 203.846,112.996 
		211.5,112.996 211.5,130.004 203.846,130.004 203.846,147.012 211.5,147.012 211.5,164.02 203.846,164.02 203.846,181.028 
		211.5,181.028 211.5,198.035 203.846,198.035 203.846,222.768 211.5,222.768 211.5,247.5 186.271,247.5 186.271,239.846 
		161.043,239.846 161.043,247.5 144.035,247.5 144.035,239.846 127.027,239.846 127.027,247.5 110.019,247.5 110.019,239.846 
		93.011,239.846 93.011,247.5 76.004,247.5 76.004,239.846 58.996,239.846 58.996,247.5 41.988,247.5 41.988,239.846 24.98,239.846 
		24.98,247.5 7.972,247.5 7.972,239.846 -9.036,239.846 -9.036,247.5 -26.044,247.5 -26.044,239.846 -51.272,239.846 -51.272,247.5 
		-76.5,247.5 -76.5,222.768 -68.847,222.768 -68.847,198.035 -76.5,198.035 -76.5,181.028 -68.847,181.028 -68.847,164.02 
		-76.5,164.02 -76.5,147.012 -68.847,147.012 -68.847,130.004 -76.5,130.004 -76.5,112.996 -68.847,112.996 -68.847,95.988 
		-76.5,95.988 -76.5,78.98 -68.847,78.98 -68.847,61.972 -76.5,61.972 -76.5,44.965 -68.847,44.965 -68.847,20.232 -76.5,20.232 	
		"/>
</g>
<g transform="translate(742.5006104999999, 22.5000185) ">
	<polygon fill="none" stroke="#0000FF" stroke-width="0.0354" points="-140.847,-4.5 -124.76,-4.5 -124.76,3.154 -101.02,3.154 
		-101.02,-4.5 -84.012,-4.5 -84.012,3.154 -67.005,3.154 -67.005,-4.5 -49.997,-4.5 -49.997,3.154 -32.989,3.154 -32.989,-4.5 
		-15.981,-4.5 -15.981,3.154 7.759,3.154 7.759,-4.5 23.846,-4.5 23.846,20.232 31.499,20.232 31.499,44.965 23.846,44.965 
		23.846,61.972 31.499,61.972 31.499,78.98 23.846,78.98 23.846,95.988 31.499,95.988 31.499,112.996 23.846,112.996 
		23.846,130.004 31.499,130.004 31.499,147.012 23.846,147.012 23.846,164.02 31.499,164.02 31.499,181.028 23.846,181.028 
		23.846,198.035 31.499,198.035 31.499,222.768 23.846,222.768 23.846,247.5 7.759,247.5 7.759,239.846 -15.981,239.846 
		-15.981,247.5 -32.989,247.5 -32.989,239.846 -49.997,239.846 -49.997,247.5 -67.005,247.5 -67.005,239.846 -84.012,239.846 
		-84.012,247.5 -101.02,247.5 -101.02,239.846 -124.76,239.846 -124.76,247.5 -140.847,247.5 -140.847,222.768 -148.501,222.768 
		-148.501,198.035 -140.847,198.035 -140.847,181.028 -148.501,181.028 -148.501,164.02 -140.847,164.02 -140.847,147.012 
		-148.501,147.012 -148.501,130.004 -140.847,130.004 -140.847,112.996 -148.501,112.996 -148.501,95.988 -140.847,95.988 
		-140.847,78.98 -148.501,78.98 -148.501,61.972 -140.847,61.972 -140.847,44.965 -148.501,44.965 -148.501,20.232 -140.847,20.232 
			"/>
</g>
<g transform="translate(742.5006104999999, 337.5002775) ">
	<polygon fill="none" stroke="#0000FF" stroke-width="0.0354" points="-140.847,-67.5 -124.76,-67.5 -124.76,-59.847 
		-101.02,-59.847 -101.02,-67.5 -84.012,-67.5 -84.012,-59.847 -67.005,-59.847 -67.005,-67.5 -49.997,-67.5 -49.997,-59.847 
		-32.989,-59.847 -32.989,-67.5 -15.981,-67.5 -15.981,-59.847 7.759,-59.847 7.759,-67.5 23.846,-67.5 23.846,-42.768 
		31.499,-42.768 31.499,-18.036 23.846,-18.036 23.846,-1.028 31.499,-1.028 31.499,15.98 23.846,15.98 23.846,32.988 
		31.499,32.988 31.499,49.996 23.846,49.996 23.846,67.004 31.499,67.004 31.499,84.012 23.846,84.012 23.846,101.019 
		31.499,101.019 31.499,118.027 23.846,118.027 23.846,135.035 31.499,135.035 31.499,159.767 23.846,159.767 23.846,184.5 
		7.759,184.5 7.759,176.846 -15.981,176.846 -15.981,184.5 -32.989,184.5 -32.989,176.846 -49.997,176.846 -49.997,184.5 
		-67.005,184.5 -67.005,176.846 -84.012,176.846 -84.012,184.5 -101.02,184.5 -101.02,176.846 -124.76,176.846 -124.76,184.5 
		-140.847,184.5 -140.847,159.767 -148.501,159.767 -148.501,135.035 -140.847,135.035 -140.847,118.027 -148.501,118.027 
		-148.501,101.019 -140.847,101.019 -140.847,84.012 -148.501,84.012 -148.501,67.004 -140.847,67.004 -140.847,49.996 
		-148.501,49.996 -148.501,32.988 -140.847,32.988 -140.847,15.98 -148.501,15.98 -148.501,-1.028 -140.847,-1.028 
		-140.847,-18.036 -148.501,-18.036 -148.501,-42.768 -140.847,-42.768 	"/>
</g>
<g transform="translate(22.5000185, 337.5002775) ">
	<polygon fill="none" stroke="#0000FF" stroke-width="0.0354" points="3.154,-59.847 20.728,-59.847 20.728,-67.5 45.957,-67.5 
		45.957,-59.847 62.965,-59.847 62.965,-67.5 79.972,-67.5 79.972,-59.847 96.98,-59.847 96.98,-67.5 113.988,-67.5 
		113.988,-59.847 130.996,-59.847 130.996,-67.5 148.004,-67.5 148.004,-59.847 165.012,-59.847 165.012,-67.5 182.02,-67.5 
		182.02,-59.847 199.028,-59.847 199.028,-67.5 216.035,-67.5 216.035,-59.847 233.043,-59.847 233.043,-67.5 258.272,-67.5 
		258.272,-59.847 275.846,-59.847 275.846,-43.76 283.5,-43.76 283.5,-20.02 275.846,-20.02 275.846,-3.012 283.5,-3.012 
		283.5,13.996 275.846,13.996 275.846,31.004 283.5,31.004 283.5,48.012 275.846,48.012 275.846,65.019 283.5,65.019 283.5,88.76 
		275.846,88.76 275.846,104.846 258.272,104.846 258.272,112.5 233.043,112.5 233.043,104.846 216.035,104.846 216.035,112.5 
		199.028,112.5 199.028,104.846 182.02,104.846 182.02,112.5 165.012,112.5 165.012,104.846 148.004,104.846 148.004,112.5 
		130.996,112.5 130.996,104.846 113.988,104.846 113.988,112.5 96.98,112.5 96.98,104.846 79.972,104.846 79.972,112.5 
		62.965,112.5 62.965,104.846 45.957,104.846 45.957,112.5 20.728,112.5 20.728,104.846 3.154,104.846 3.154,88.76 -4.5,88.76 
		-4.5,65.019 3.154,65.019 3.154,48.012 -4.5,48.012 -4.5,31.004 3.154,31.004 3.154,13.996 -4.5,13.996 -4.5,-3.012 3.154,-3.012 
		3.154,-20.02 -4.5,-20.02 -4.5,-43.76 3.154,-43.76 	"/>
</g>
<g transform="translate(382.50031449999994, 337.5002775) ">
	<polygon fill="none" stroke="#0000FF" stroke-width="0.0354" points="-68.847,-59.847 -51.272,-59.847 -51.272,-67.5 
		-26.044,-67.5 -26.044,-59.847 -9.036,-59.847 -9.036,-67.5 7.972,-67.5 7.972,-59.847 24.98,-59.847 24.98,-67.5 41.988,-67.5 
		41.988,-59.847 58.996,-59.847 58.996,-67.5 76.004,-67.5 76.004,-59.847 93.011,-59.847 93.011,-67.5 110.019,-67.5 
		110.019,-59.847 127.027,-59.847 127.027,-67.5 144.035,-67.5 144.035,-59.847 161.043,-59.847 161.043,-67.5 186.271,-67.5 
		186.271,-59.847 203.846,-59.847 203.846,-43.76 211.5,-43.76 211.5,-20.02 203.846,-20.02 203.846,-3.012 211.5,-3.012 
		211.5,13.996 203.846,13.996 203.846,31.004 211.5,31.004 211.5,48.012 203.846,48.012 203.846,65.019 211.5,65.019 211.5,88.76 
		203.846,88.76 203.846,104.846 186.271,104.846 186.271,112.5 161.043,112.5 161.043,104.846 144.035,104.846 144.035,112.5 
		127.027,112.5 127.027,104.846 110.019,104.846 110.019,112.5 93.011,112.5 93.011,104.846 76.004,104.846 76.004,112.5 
		58.996,112.5 58.996,104.846 41.988,104.846 41.988,112.5 24.98,112.5 24.98,104.846 7.972,104.846 7.972,112.5 -9.036,112.5 
		-9.036,104.846 -26.044,104.846 -26.044,112.5 -51.272,112.5 -51.272,104.846 -68.847,104.846 -68.847,88.76 -76.5,88.76 
		-76.5,65.019 -68.847,65.019 -68.847,48.012 -76.5,48.012 -76.5,31.004 -68.847,31.004 -68.847,13.996 -76.5,13.996 -76.5,-3.012 
		-68.847,-3.012 -68.847,-20.02 -76.5,-20.02 -76.5,-43.76 -68.847,-43.76 	"/>
</g>
<rect x="61.37" y="71.5" fill="none" stroke="#0000FF" stroke-width="0.035" stroke-miterlimit="10" width="201.26" height="68.031"/>
<text transform="matrix(1 0 0 1 202.4258 182.5)"><tspan x="0" y="0" fill="#FF0000" font-family="'Papyrus-Regular'" font-size="14">Pura Vida</tspan><tspan x="-79.7" y="16.8" fill="#FF0000" font-family="'Papyrus-Regular'" font-size="14">Particulate Monitor 2.5</tspan></text>
</svg>
